<svg width="769" height="293" viewBox="0 0 769 293" fill="none" xmlns="http://www.w3.org/2000/svg">
<path d="M79.4922 210.045C35.2121 210.045 0 203.734 0 232.402C34.8588 250.288 82.8289 250.052 102.457 247.699C132.487 239.266 189.25 227.459 176.06 247.699C159.573 272.997 344.466 232.402 387.451 232.402H568.811C597.075 232.402 680.688 257.7 743.105 247.699C805.521 237.697 736.627 200.626 727.795 189.448C718.963 178.269 684.81 151.794 706.008 142.38C727.206 132.966 706.401 84.138 706.008 60.0159C680.688 21.1854 657.96 53.1918 630.638 21.1854C596.486 -18.8225 548.202 7.65343 540.547 21.1854C532.892 34.7174 491.085 20.5971 471.065 21.1854C451.044 21.7738 449.604 46.4155 445.156 48.8377C432.202 55.8929 387.451 32.3591 374.496 55.8929C363.997 74.9671 382.74 72.9599 344.466 92.3753C313.847 107.908 321.502 141.208 329.156 155.917C337.989 164.546 350.354 181.804 329.156 181.804C302.659 181.804 263.207 165.919 219.045 181.804C174.883 197.689 134.842 210.045 79.4922 210.045Z" fill="#CCCCCC"/>
<path d="M398.475 229.461C378.773 235.015 366.68 250.075 370.806 258.297C374.932 266.519 460.452 269.455 508.754 269.455C556.632 269.455 558.823 279.379 598.91 288.188C630.98 295.236 661.4 296.257 687.928 279.379C701.489 258.671 693.236 256.168 701.489 236.354C712.68 209.489 707.974 188.785 676.729 177.039C666.904 175.865 667.701 180.151 661.4 170.734C653.148 158.401 630.155 143.131 611.29 158.401C592.426 173.67 567.666 174.257 543.495 170.734C519.325 167.21 503.447 170.734 480.418 197.808C466.878 213.725 463.912 213.884 451.532 221.673C439.152 229.461 429.721 220.652 398.475 229.461Z" fill="white"/>
</svg>
