<svg width="437" height="167" viewBox="0 0 437 167" fill="none" xmlns="http://www.w3.org/2000/svg">
<path d="M14.1277 72.5C-5.57463 78.0541 -0.192776 98.0751 3.93322 106.297C8.05923 114.519 65.2434 135 113.545 135C161.423 135 136.535 157.191 176.623 166C208.693 173.047 255.811 117.922 321.055 127.379C373.629 135 447.337 89.7976 434.629 72.5C395.129 18.7338 366.402 33 333.629 33C314.902 33 300.828 28.1513 294.527 18.7338C286.275 6.40125 263.282 -8.86852 244.418 6.40067C225.553 21.6699 200.793 22.2575 176.623 18.7338C152.452 15.2101 136.575 18.7338 113.545 45.8076C100.005 61.7247 67.0072 29.7118 54.6273 37.5C42.2474 45.2882 45.3741 63.6915 14.1277 72.5Z" fill="#D9EDFF"/>
</svg>
