<svg width="1006" height="375" viewBox="0 0 1006 375" fill="none" xmlns="http://www.w3.org/2000/svg">
<path d="M330.224 0.104206C273.105 -2.24582 256.619 35.9315 256.619 35.9315C256.619 35.9315 239.779 90.2019 203.034 86.443C166.29 82.684 158.675 127.165 159.461 149.875C156.124 156.14 138.497 168.67 94.6885 168.67C39.9273 168.67 61.1234 205.672 47.5801 211.545C34.0367 217.418 -19.5479 236.8 7.53883 248.547C29.2082 257.944 35.8032 268.908 36.3921 273.215C57.5904 273.215 109.88 275.564 149.45 284.962C189.02 294.359 212.456 272.626 228.944 272.626C245.433 272.626 271.622 283.578 323.159 300.23C364.967 313.739 414.43 300.23 489.211 306.106C533.884 309.615 593.829 302.19 618.756 294.359C657.62 291.226 746.417 286.841 790.698 294.359C834.979 301.877 879.024 297.491 895.512 294.359C915.14 291.618 962.169 285.901 993.26 284.962C1024.35 284.022 991.297 276.739 970.884 273.215C960.677 269.691 935.318 262.643 915.533 262.643C895.748 262.643 864.892 253.246 851.938 248.547C840.946 240.324 815.43 223.879 801.297 223.879C783.632 223.879 789.521 232.102 763.612 182.178C742.884 142.24 729.46 150.656 717.683 162.795C710.224 160.249 683.53 149.286 651.732 141.652C618.384 133.647 611.103 203.908 589.903 182.178C572.371 164.207 576.557 134.994 563.995 131.666C526.31 121.681 516.299 155.747 502.755 141.652C489.307 127.659 480.969 97.6005 459.77 92.9019C438.572 88.2032 462.712 72.3487 422.083 52.3776C381.454 32.4066 387.343 2.45423 330.224 0.104206Z" fill="white"/>
<path d="M65.1968 355.841C43.1975 355.841 -11.1924 355.842 2.05068 363.85C15.2938 371.858 28.5313 371.858 81.4926 371.858C147.694 371.858 174.175 371.858 197.6 363.85C216.34 357.443 252.423 338.165 290.282 338.934C325.49 339.65 350.576 379.511 375.835 363.85C407.408 344.274 528.608 363.85 568.329 371.858C608.05 379.867 624.345 371.858 634.53 355.841C644.715 339.824 598.618 342.542 598.883 325.587C599.104 311.477 625.366 322.92 615.181 308.681C604.996 294.442 596.849 289.105 578.516 289.105C560.183 289.105 611.105 244.61 598.883 236.603C586.661 228.595 541.848 236.603 528.608 236.603C515.367 236.603 514.349 215.247 541.848 196.56C569.347 177.873 512.312 174.314 514.349 173.424C515.978 172.712 498.431 163.656 486.85 160.075C463.603 152.887 447.274 153.743 423.704 160.075C391.622 168.695 367.41 180.739 358.521 209.017C354.307 222.42 394.168 244.61 358.521 244.61C322.874 244.61 296.393 270.417 277.042 270.417C257.691 270.417 258.709 259.739 248.524 256.179C238.339 252.62 212.877 270.417 174.175 270.417C135.472 270.417 171.119 321.138 155.842 325.587C140.565 330.036 135.472 342.494 121.214 355.841C106.955 369.189 92.6959 355.841 65.1968 355.841Z" fill="#D9D9D9"/>
</svg>
