<svg width="524" height="174" viewBox="0 0 524 174" fill="none" xmlns="http://www.w3.org/2000/svg">
<path d="M54.1663 142.765C23.9937 142.765 0 138.475 0 157.961C23.7529 170.117 56.44 169.957 69.8144 168.358C90.2772 162.626 128.956 154.601 119.968 168.358C108.734 185.553 234.721 157.961 264.011 157.961H387.59C406.849 157.961 463.824 175.156 506.355 168.358C548.885 161.559 501.941 136.363 495.923 128.765C489.904 121.167 466.633 103.172 481.077 96.7738C495.521 90.3754 481.345 57.1876 481.077 40.7921C463.824 14.3995 448.337 36.1538 429.719 14.3995C406.448 -12.7934 373.547 5.20194 368.331 14.3995C363.115 23.597 334.627 13.9996 320.986 14.3995C307.344 14.7993 306.362 31.548 303.331 33.1944C294.504 37.9897 264.011 21.9941 255.184 37.9897C248.029 50.9542 260.801 49.5899 234.721 62.7864C213.857 73.3435 219.073 95.9774 224.289 105.975C230.307 111.84 238.733 123.57 224.289 123.57C206.233 123.57 179.351 112.773 149.258 123.57C119.166 134.367 91.8821 142.765 54.1663 142.765Z" fill="white"/>
</svg>
