<svg width="1037" height="486" viewBox="0 0 1037 486" fill="none" xmlns="http://www.w3.org/2000/svg">
<path d="M145.234 294.043C124.595 288.233 -4.39889 244.981 0.115692 267.575C4.63027 290.17 88.6056 306.308 109.761 306.308C136.204 306.308 254.234 328.257 286.482 328.257C318.731 328.257 388.387 335.358 414.831 328.257C441.275 321.156 425.796 345.687 388.387 370.864C350.979 396.04 254.234 332.776 266.488 370.864C278.743 408.951 417.411 397.331 480.618 397.331C543.825 397.331 543.18 394.749 587.683 345.687C632.186 296.625 827.612 312.764 875.34 306.308C923.068 299.853 968.215 267.575 934.032 267.575C899.849 267.575 877.275 244.981 827.612 227.551C777.949 210.121 795.364 227.551 771.5 217.222C747.636 206.893 752.796 267.575 694.748 253.373C636.701 239.17 636.056 241.753 587.683 227.551C548.985 216.189 563.229 254.631 543.18 253.373C525.053 252.235 514.286 227.551 504.482 227.551C492.228 227.551 480.618 206.892 480.618 179.134C480.618 151.376 435.47 157.185 401.932 156.54C368.393 155.894 392.258 118.149 345.82 110.06C299.382 101.971 242.624 110.059 238.11 132.653C233.595 155.248 316.796 199.146 254.234 206.892C204.184 213.089 233.38 249.93 254.234 267.575C260.469 276.398 269.197 294.043 254.234 294.043C235.53 294.043 191.672 277.903 175.548 267.575C159.423 257.247 165.873 299.853 145.234 294.043Z" fill="#D9D9D9"/>
<path d="M445.983 243.729C427.76 248.389 422.958 240.029 418.99 251.175C415.021 262.322 428.939 276.034 444.216 285.272C465.699 298.262 467.475 341.331 510.1 373.381C523.682 383.594 516.53 364.954 572.922 371.831C592.218 374.185 635.189 406.216 671.544 400.954C693.787 389.652 740.665 384.146 761.419 371.223C797.738 348.606 804.583 287.929 809.976 286.086C822.86 281.683 862.77 274.408 900.511 241.314C938.251 208.219 953.555 238.039 998.374 215.875C1043.19 193.711 1003.22 191.833 974.462 204.743C945.705 217.652 938.646 190.97 888.989 201.096C839.332 211.222 916.76 231.31 869.176 225.325C821.592 219.339 832.018 240.421 816.738 251.257C804.514 259.926 797.459 252.465 785.009 252.517C768.398 252.588 763.912 258.359 742.272 250.694C715.222 241.113 700.539 282.483 685.79 286.497C671.042 290.511 638.035 266.909 624.59 273.559C611.144 280.208 587.329 281.402 563.407 278.146C539.485 274.89 541.986 274.309 533.064 275.441C524.142 276.574 504.088 284.524 499.657 275.564C495.226 266.604 496.901 239.538 480.891 237.617C468.082 236.08 458.924 240.42 445.983 243.729Z" fill="white"/>
</svg>
