<svg width="18" height="21" viewBox="0 0 18 21" fill="none" xmlns="http://www.w3.org/2000/svg">
<path d="M5.48328 7.59802C5.57855 7.88384 6.40971 10.189 6.50763 10.9724C6.62814 11.9364 7.83326 14.7685 7.773 15.4915C7.773 16.3351 8.38752 19.3083 7.89351 20.1915C7.38483 21.101 5.78456 20.4325 5.12175 19.8902C3.91663 19.2274 2.71567 16.5159 2.22947 15.7326C1.14486 13.9851 0 12.4411 0 10.6108C0 8.7805 0.69866 5.24805 2.22947 5.24805C3.76027 5.24805 5.24226 6.87495 5.48328 7.59802Z" fill="#303032"/>
<path d="M6.3148 5.58317C6.36644 5.91293 6.72628 8.59949 7.01513 9.43301C7.37063 10.4589 8.2235 14.2109 8.43765 15.0097C8.82606 16.0788 9.31379 19.0299 10.1851 19.7097C11.0822 20.4096 12.1098 18.9866 12.6556 18.143C13.4242 16.9548 13.1078 13.402 13.1694 12.4014C13.307 10.1693 13.5968 8.11677 12.7154 6.26761C11.834 4.41845 9.50214 1.15023 8.12029 1.80892C6.73844 2.4676 6.18415 4.74894 6.3148 5.58317Z" fill="#303032"/>
</svg>
