<svg width="274" height="260" viewBox="0 0 274 260" fill="none" xmlns="http://www.w3.org/2000/svg">
<path d="M112.267 198.456C115.18 195.391 124.466 173.548 128.745 163.01C129.32 163.01 130.968 162.626 132.96 161.094C134.953 159.561 140.05 161.732 142.349 163.01C142.157 163.521 141.506 164.849 140.433 166.075C139.36 167.302 135.898 169.524 134.302 170.482C128.553 183.894 116.751 210.566 115.524 209.952C113.992 209.186 113.8 220.299 112.267 218.191C110.734 216.084 100.963 235.436 98.4717 236.202C96.5696 236.787 93.2361 243.471 91.6038 247.188C91.595 247.446 91.5252 247.62 91.3824 247.698C91.4521 247.536 91.526 247.365 91.6038 247.188C91.7252 243.641 80.2916 224.336 88.5084 224.514C95.5594 224.668 99.7491 217.169 100.963 213.401C101.282 211.932 102.419 208.918 104.411 208.611C106.902 208.228 108.627 202.288 112.267 198.456Z" fill="#7F7865"/>
<path d="M129.129 157.07C129.129 156.457 128.746 153.749 128.555 152.472V150.939C130.279 150.108 134.035 148.256 135.261 147.49C136.794 146.532 140.434 149.214 141.392 149.214C142.35 149.214 142.925 151.897 143.883 154.962C144.649 157.415 143.564 160.327 142.925 161.477C143.538 159.331 133.6 159.561 128.555 159.944C128.746 159.242 129.129 157.683 129.129 157.07Z" fill="#C5C3AC"/>
<path d="M127.594 149.405C127.747 147.565 112.202 121.814 104.41 109.168L123.187 113.575C129.446 122.9 142.118 142.2 142.731 144.806C143.344 147.412 142.986 149.596 142.731 150.363C142.271 146.684 136.536 146.531 133.725 146.914C131.618 148.51 127.441 151.244 127.594 149.405Z" fill="#7F7865"/>
<path d="M24.7058 160.901C24.5525 160.442 22.7259 159.688 21.8317 159.369C19.5325 156.61 20.1073 174.314 20.6821 183.511C21.704 196.22 23.6711 221.831 23.3645 222.598C22.9813 223.556 22.9813 235.627 22.9813 236.393C22.9813 237.16 24.5142 238.692 25.6638 239.842C26.5835 240.762 26.9411 245.462 27.005 247.698H31.4119C33.3918 247.825 37.6964 248.004 39.076 247.698C40.8004 247.314 39.076 244.249 39.076 243.674C39.076 243.099 35.0523 235.243 34.6691 234.094C34.3625 233.174 34.0304 230.262 33.9027 228.921C33.2002 228.218 31.7184 226.315 31.4119 224.322C31.0287 221.831 27.5798 191.366 27.5798 190.6C27.5798 189.834 25.6638 174.122 27.5798 172.589C29.1126 171.363 28.6017 166.841 28.1546 164.734C27.0689 163.648 24.859 161.361 24.7058 160.901Z" fill="#7F7865"/>
<path d="M26.0475 151.513C24.0548 150.593 22.2793 154.706 21.6406 156.878L25.2811 160.326C25.792 161.22 27.0822 163.047 28.1551 163.2C29.2281 163.354 29.3686 157.005 29.3047 153.812C29.0493 153.429 28.0402 152.433 26.0475 151.513Z" fill="#C5C3AC"/>
<path d="M21.4471 157.837C20.5274 158.603 11.6115 154.963 7.26851 153.047C7.20465 173.548 7.38347 214.781 8.60973 215.701C10.1426 216.851 4.58607 235.053 7.84332 234.67C10.4491 234.363 12.3779 238.63 13.0166 240.801V247.507C13.3359 249.04 14.741 252.106 17.8067 252.106H25.4708L24.1296 240.035C24.0018 239.46 23.5165 238.157 22.5968 237.544C21.6771 236.931 22.2136 231.796 22.5968 229.305C22.0858 227.389 20.7574 223.289 19.5311 222.216C17.9983 220.874 20.2975 179.296 19.5311 175.081C18.7647 170.866 22.5968 156.879 21.4471 157.837Z" fill="#C89C5A"/>
<path d="M3.24471 69.5077C-1.35377 61.8436 -0.0764117 43.5774 1.13707 35.4023L36.9669 94.4161C35.6256 96.4599 33.2881 101.352 34.6676 104.571C36.392 108.595 29.3027 154.005 29.1111 152.089C28.9578 150.556 27.0035 150.3 26.0455 150.364C24.321 151.514 21.0638 152.548 21.8302 147.49C22.7882 141.167 20.8722 101.122 18.3814 97.2901C15.8905 93.4581 8.9928 79.0878 3.24471 69.5077Z" fill="#7F7865"/>
<path d="M5.92838 149.598C4.85541 147.912 5.48131 141.614 5.92838 138.676L8.03597 136.186C9.24945 137.016 13.3242 138.945 19.9154 140.018C26.5065 141.091 27.0047 145.83 26.4299 148.065C25.408 149.47 23.0576 152.817 21.8314 154.963C20.2986 157.645 7.2696 151.705 5.92838 149.598Z" fill="#A56B15"/>
<path d="M237.194 206.887L235.086 188.301C236.465 189.68 243.325 170.482 246.582 160.711C248.626 154.899 252.867 141.282 253.48 133.311C254.246 123.348 264.21 105.145 265.742 102.655C267.275 100.164 278.771 95.3736 271.491 101.122C264.21 106.87 261.527 133.311 260.378 139.251C259.228 145.19 253.48 172.206 251.755 179.679C250.376 185.657 241.473 200.308 237.194 206.887Z" fill="#75664C"/>
<path d="M231.06 112.427C230.754 106.602 237.447 101.57 240.832 99.7812C236.808 105.913 236.042 114.151 236.042 116.642C236.042 119.133 237.766 139.635 238.149 142.509C238.533 145.383 237 168.567 236.616 171.632C236.31 174.085 234.317 181.085 233.359 184.278L225.887 174.698C227.739 156.368 231.367 118.252 231.06 112.427Z" fill="#75664C"/>
<path d="M139.472 172.971C138.706 174.81 133.533 174.376 131.042 173.929C129.956 196.347 127.938 240.952 128.551 240.033C129.317 238.883 134.682 246.93 134.682 248.272C134.682 249.613 139.472 257.085 140.622 258.427C141.772 259.768 145.412 256.511 146.945 256.127C148.478 255.744 147.137 246.93 146.945 244.823C146.753 242.715 138.323 236.967 138.323 232.56C138.323 228.153 137.748 198.263 138.323 196.347C138.898 194.431 140.43 170.672 139.472 172.971Z" fill="#C89C5A"/>
<path d="M128.933 163.968C126.634 165.808 128.742 169.461 130.083 171.058C130.083 173.204 136.725 172.335 140.046 171.632C139.982 170.866 140.008 169.295 140.621 169.141C141.387 168.95 141.196 164.543 140.621 162.244C140.046 159.945 133.915 160.903 132.382 160.52C130.849 160.136 131.807 161.669 128.933 163.968Z" fill="#A56B15"/>
<path d="M48.0779 2.25541C36.965 4.55559 13.0148 13.1746 5.7337 23.9055C-1.54738 34.6363 0.751966 45.9403 1.90158 49.5808C3.0512 53.2212 25.2772 96.9067 32.1749 95.7571C39.0726 94.6075 31.0252 110.511 29.684 113.001C28.3428 115.492 6.30846 137.143 9.3741 135.994C12.4398 134.844 19.7207 138.868 22.0199 139.826C24.3191 140.784 28.1512 145.382 29.684 142.125C30.9103 139.519 53.9537 118.558 65.3222 108.403C75.1578 109.936 95.2889 112.503 97.1283 110.511C98.9677 108.518 122.754 114.531 128.168 127.18C131.583 135.16 128.168 146.915 128.168 149.406C128.168 151.13 128.934 163.01 130.084 161.094C131.234 159.178 134.491 159.561 137.365 159.561C140.239 159.561 141.197 163.01 141.197 159.561C141.197 156.802 141.772 148.065 146.37 134.844C150.969 121.624 186.607 196.54 184.691 201.522C182.775 206.504 187.948 227.963 191.014 231.029C194.079 234.094 197.72 248.656 196.953 249.614C196.187 250.572 196.953 255.171 196.953 255.171C196.953 255.171 198.87 258.236 204.234 259.769C209.599 261.302 223.012 254.788 223.97 252.297C224.928 249.806 223.97 242.333 223.97 235.436C223.97 229.918 232.4 216.659 236.615 210.719C237.19 209.314 238.34 207.462 238.34 196.54C238.34 185.619 223.97 174.506 219.563 168.758C215.156 163.01 204.043 124.689 192.738 101.697C181.434 78.7044 182.2 82.9197 179.709 75.4472C177.218 67.9747 177.218 65.6754 175.494 59.9273C173.769 54.1792 171.279 47.0899 168.596 41.1502C165.914 35.2105 153.268 23.035 148.669 21.9899C144.071 20.9448 135.066 20.2305 125.102 14.709C119.801 11.7713 106.44 5.16777 95.4039 2.25541C81.6085 -1.38505 59.1909 -0.0447794 48.0779 2.25541Z" fill="#C89C5A"/>
<path d="M20.298 32.144C17.3601 34.8903 13.247 42.0307 20.298 48.6218C29.1117 56.8608 25.8545 57.0524 27.579 58.0104C29.3034 58.9684 36.5843 62.0341 39.2667 60.5012C41.4127 59.275 44.2484 61.2676 45.398 62.4173C46.934 61.8687 49.7892 60.7359 50.5644 60.0387C50.6961 59.7661 50.7629 59.6477 50.7629 59.7348C50.7629 59.8213 50.6917 59.9241 50.5644 60.0387C49.5374 62.1643 44.5661 73.6695 36.5843 70.273C27.579 66.4409 21.256 62.4173 20.298 62.4173C19.34 62.4173 -0.778298 51.4959 6.88582 30.9944C9.24893 28.6951 15.2397 25.7061 20.298 32.144Z" fill="#303032"/>
<path d="M230.679 188.492C231.573 191.621 227.805 196.922 226.272 196.731C224.739 196.539 219.106 187.189 218.033 184.276C216.96 181.364 220.907 174.377 223.015 171.247C220.409 157.452 230.104 146.85 235.277 143.273C235.277 143.273 235.852 159.176 235.277 164.158C234.702 169.14 232.825 175.999 230.679 177.379C228.533 178.758 229.785 185.362 230.679 188.492Z" fill="#3E3935"/>
</svg>
