<svg width="360" height="470" viewBox="0 0 360 470" fill="none" xmlns="http://www.w3.org/2000/svg">
<path d="M152.587 206.419C153.356 214.466 148.779 228.055 135.832 241.72C128.417 253.374 129.358 257.662 127.073 266.013C124.788 274.363 118.545 285.18 113.745 286.889C111.094 285.625 110.698 280.436 109.937 277.779C109.175 276.641 105.72 272.465 104.986 272.465C104.986 272.465 101.755 271.491 96.9895 272.465C92.8685 273.308 84.1094 277.317 83.2804 276.641C78.33 273.604 86.7251 258.421 87.4693 255.384C87.4693 252.49 90.4298 242.948 90.1177 235.647C89.6831 225.481 89.1465 215.724 86.3271 209.835C86.3271 188.872 96.903 185.542 117.934 185.542C138.965 185.542 152.587 185.456 152.587 206.419Z" fill="#AE9F79"/>
<path d="M113.139 298.733C113.139 300.634 115.832 321.135 115.832 329.109C115.832 337.083 118.105 361.383 119.294 367.838C119.709 370.093 125.834 398.973 126.988 412.262C129.198 437.702 135.745 440.937 137.376 449.472C139.299 452.89 135.067 460.104 131.605 460.104C125.449 460.104 124.635 451.752 121.988 454.029C121.13 454.766 108.294 471.003 104.675 460.104C101.676 451.072 106.182 425.784 103.136 415.3C99.1168 401.467 97.7001 379.076 96.9803 374.672C95.0568 362.902 83.4129 327.666 82.7504 324.173C80.4464 312.023 82.751 302.222 82.751 290.898C82.751 279.575 90.9269 295.835 100.063 295.835C109.2 295.835 108.518 289.862 113.139 298.733Z" fill="#AE9F79"/>
<path d="M256.313 339.347C256.313 351.657 257.089 366.075 257.089 375.206C257.089 384.338 258.339 395.155 259.368 410.134C260.147 421.48 260.665 424.378 260.887 426.846C261.237 430.742 264.084 439.998 264.685 451.155C265.045 457.831 263.565 463.441 262.408 463.689C258.645 464.493 257.157 458.791 255.571 459.131C254.193 459.425 250.958 465.791 248.353 466.348C245.748 466.905 241.777 464.242 241.518 457.232C238.857 453.813 237.72 453.813 235.439 453.054C234.196 448.813 240.758 418.87 239.997 414.312C239.997 407.855 238.857 381.268 238.857 377.469C238.857 375.163 236.416 340.263 236.416 331.235C235.236 316.334 238.422 326.794 248.334 324.674C258.246 322.554 256.313 320.891 256.313 339.347Z" fill="#C4B58C"/>
<path d="M292.792 340.866C292.792 353.177 293.568 367.594 293.568 376.726C293.568 385.857 293.738 396.609 294.767 411.589C293.687 414.563 294.545 426.213 294.767 428.681C297.806 433.998 305.782 448.561 305.782 452.675C305.782 456.788 300.102 464.137 298.945 464.384C295.182 465.189 293.315 459.552 291.728 459.891C290.35 460.186 289.449 467.803 286.031 467.803C282.613 467.803 284.512 461.346 279.954 456.788C276.536 453.369 278.435 455.648 275.397 451.47C274.153 447.23 274.638 405.511 273.877 400.954C273.877 394.496 272.895 382.786 272.895 378.988C272.895 376.682 272.895 341.782 272.895 332.754C271.715 317.853 274.901 328.314 284.813 326.194C294.725 324.074 292.792 322.411 292.792 340.866Z" fill="#AE9F79"/>
<path d="M292.032 171.161C292.032 183.472 292.032 208.748 292.032 217.879C292.032 227.011 292.033 239.529 292.033 254.722C292.033 260.42 292.033 271.435 292.033 275.992C292.033 280.55 292.033 281.69 292.033 287.767C292.033 296.295 291.752 314.107 290.594 314.354C286.831 315.159 284.204 312.116 282.617 312.455C281.239 312.75 276.487 316.836 273.881 317.393C271.276 317.95 268.823 317.567 268.564 310.556L267.805 297.642C267.805 297.642 266.349 271.055 265.905 268.396C265.461 265.737 262.786 247.885 262.786 244.087C262.786 241.781 257.93 213.234 257.93 204.206C256.75 189.305 261.312 197.59 271.224 195.47C281.136 193.35 292.032 152.706 292.032 171.161Z" fill="#AE9F79"/>
<path d="M44.5626 316.838C44.4673 322.699 38.1173 350.182 37.8281 358.04C37.6825 361.995 34.7421 380.257 32.0711 396.408C30.0479 408.641 28.4749 422.16 28.0924 424.833C27.4887 429.054 29.9068 434.82 27.7352 446.809C26.4357 453.983 27.5792 456.404 24.5224 462.565C22.1805 467.285 15.3237 468.429 13.4874 468.4C11.8922 468.374 5.56732 468.271 2.55126 468.222C-0.464814 468.173 -0.455347 465.171 1.03999 457.667C2.30206 451.333 6.68825 437.57 6.47238 434.043C10.1249 415.565 9.43097 406.723 11.9734 379.1C12.2945 359.345 14.6891 351.387 14.8314 347.179C15.1525 337.687 19.6293 306.176 19.7251 300.282C20.048 280.422 22.0975 303.88 33.5723 304.067C45.0472 304.253 44.8855 296.978 44.5626 316.838Z" fill="#C4B58C"/>
<path d="M253.087 95.3716C253.087 97.9642 255.572 105.795 269.816 112.873C275.632 115.764 287.686 112.112 293.008 104.883C294.529 115.156 298.455 134.343 298.455 136.602C298.455 138.86 297.982 170.083 295.033 177.693C291.2 187.585 280.319 199.199 278.941 200.959C277.563 202.719 263.476 208.074 255.749 209.514C250.091 210.568 247.967 206.369 246.624 210.655C243.582 214.46 254.359 254.464 255.749 263.541C257.613 275.716 259.17 282.311 259.17 291.567C259.17 298.193 261.951 301.969 259.17 306.915C255.749 313.003 250.185 301.858 246.624 301.969C244.428 302.037 237.393 315.443 233.317 308.057C230.241 283.326 232.123 275.716 225.173 255.931C220.819 239.129 210.799 208.359 207.463 210.655C195.677 208.753 167.709 214.776 150.433 205.709C141.457 200.998 126.098 189.348 119.256 189.348C110.804 189.348 102.986 194.935 95.6837 200.959C85.9923 208.955 84.2776 210.655 75.533 223.211C72.0438 231.671 63.6953 254.458 58.8041 263.541C52.0426 276.097 50.9249 279.794 47.7782 283.326C44.1136 287.44 41.9846 280.491 39.794 279.521C36.9424 278.258 27.1409 285.928 25.7267 279.521C25.0002 276.229 29.1483 269.248 31.8098 255.931C35.7637 236.147 35.3408 212.558 31.8098 200.959C25.7268 180.978 21.5444 165.759 25.7267 137.984C31.8098 101.079 86.9391 66.0751 136.365 66.0751C145.944 66.0751 182.75 66.4556 203.281 51.6171C210.505 46.3961 229.227 26.4741 236.739 26.5059C236.739 47.0515 242.061 48.1929 244.723 66.0751C247.384 83.9574 245.863 76.348 253.087 95.3716Z" fill="#C4B58C"/>
<path d="M114.47 284.336C114.47 296.005 107.102 296.244 97.5376 296.244C87.9733 296.244 84.0664 293.316 84.0664 281.647C84.0664 269.978 93.3047 274.348 101.386 269.738C108.313 269.738 109.852 270.891 114.47 284.336Z" fill="#7F7354"/>
<path d="M257.904 314.955C257.904 326.475 258.613 328.987 249.107 328.987C245.664 328.229 240.31 327.091 236.867 317.23C236.867 305.71 238.78 305.473 246.812 300.922C254.462 303.577 253.314 301.68 257.904 314.955Z" fill="#AE9F79"/>
<path d="M47.414 295.87C47.414 307.302 41.3075 303.397 31.9092 303.397C22.5109 303.397 21.6993 301.28 21.6993 289.848C21.6993 278.415 30.775 278.933 38.7163 274.416C48.1146 274.416 47.414 284.437 47.414 295.87Z" fill="#AE9F79"/>
<path d="M238.246 31.8462C238.246 33.0945 238.974 36.0372 237.487 37.5284C229.142 37.5284 217.383 51.9235 205.624 49.6506C202.03 49.6506 191.909 47.3225 184.381 41.3166C175.232 34.0164 175.277 18.3576 175.277 14.7993C175.277 8.31368 188.938 17.4511 196.899 17.4511C204.86 17.4511 228.383 26.9215 238.246 31.8462Z" fill="#AE9F79"/>
<path d="M305.47 24.5029C305.47 25.7522 305.88 39.691 307.373 41.1834C315.752 41.1834 318.418 46.1115 330.224 43.8369C333.832 43.8369 357.263 35.5321 357.263 24.5029C360.309 9.37424 359.929 2.89461 355.74 0.998966C353.073 -2.41275 347.743 3.38716 337.46 11.2345C326.035 19.9537 315.372 19.5747 305.47 24.5029Z" fill="#AE9F79"/>
<path d="M307.529 35.854C307.529 43.7544 309.917 50.4989 307.529 60.6348C305.507 69.2186 298.74 64.8284 296.448 102.19C289.54 120.792 278.475 122.396 271.992 122.396C265.368 122.396 256.193 120.758 247.919 102.19C240.376 85.2655 235.309 52.3985 235.309 38.1415C235.309 8.24281 255.891 0.779785 268.553 0.779785C281.215 0.779785 307.529 5.95536 307.529 35.854Z" fill="#AE9F79"/>
<path d="M291.437 321.043C291.437 328.096 287.236 332.18 282.273 333.665C278.836 332.922 276.163 332.551 272.727 322.899C272.727 311.622 278.836 311.019 283.036 310.277C286.855 310.277 290.673 314.732 291.437 321.043Z" fill="#7F7354"/>
</svg>
