<svg width="983" height="794" viewBox="0 0 983 794" fill="none" xmlns="http://www.w3.org/2000/svg">
<path d="M-2.38419e-06 132.244C-2.38419e-06 140.098 41.1045 170.847 57.5793 170.847C74.0541 170.847 80.4723 154.323 80.4723 146.468C80.4723 138.614 67.1168 132.247 50.642 132.247C34.1673 132.247 -2.38419e-06 124.39 -2.38419e-06 132.244Z" fill="#AE9F79"/>
<path d="M22.5044 69.098C19.936 45.1099 33.4807 45.0724 43.085 21.0469C10.1564 26.5384 1.23804 61.5471 1.23804 74.5895C1.23804 87.632 8.44181 110.59 22.5044 113.717C41.027 117.836 40.341 117.836 50.4744 117.836C50.4744 122.641 43.4533 130.741 52.2343 138.429C63.2105 148.039 82.1881 129.505 89.0482 122.641C95.9084 115.776 98.6524 99.3015 78.0719 87.632C61.6076 78.2963 37.5968 100.674 30.7366 95.1829C23.8765 89.6913 24.5624 88.3184 22.5044 69.098Z" fill="#DDDCD9"/>
<path d="M812.866 470.764C833.569 510.561 848.05 596.422 868.624 585.72C876.013 581.876 896.451 595.392 896.158 575.395C895.635 539.714 877.072 464.602 863.805 439.098C843.103 399.3 791.45 360.248 770.876 370.95C750.303 381.652 792.164 430.966 812.866 470.764Z" fill="#AE9F79"/>
<path d="M458.942 401.111C458.505 410.286 475.311 420.781 474.775 428.649C471.446 477.459 458.687 515.792 443.275 566.774C435.078 568.256 416.567 573.13 404.562 557.135C390.106 537.874 396.013 475.912 396.013 445.625C401.12 391.932 394.82 372.194 417.641 368.069C440.461 363.943 450.962 356.967 458.942 401.111Z" fill="#AE9F79"/>
<path d="M451.009 609.325C459.94 674.882 457.83 691.391 451.01 752.861C454.813 768.006 457.566 783.838 430.032 779.709C428.16 780.177 417.449 781.201 416.264 775.576C415.124 770.163 423.96 759.503 423.836 750.107C423.332 711.821 419.939 651.556 416.264 631.707C411.511 577.982 402.148 576.589 423.836 568.378C445.524 560.167 435.126 567.371 451.009 609.325Z" fill="#AE9F79"/>
<path d="M943.915 296.185C943.915 341.151 950.358 377.602 958.307 377.602C966.255 377.602 976.81 335.631 976.81 290.666C976.81 245.7 945.01 203.039 937.062 203.039C929.114 203.039 943.915 251.22 943.915 296.185Z" fill="#212121"/>
<ellipse cx="24.7607" cy="206.133" rx="24.7607" ry="206.133" transform="matrix(-1 0 0 1 983 329.316)" fill="#212121"/>
<path d="M395.516 682.981C395.516 695.833 392.832 736.637 387.417 756.786C382.362 775.594 384.701 764.545 377.063 779.83C372.311 782.742 375.918 789.664 392.116 789.664C415.739 792.099 422.096 771.824 425.213 771.824C432.295 771.824 425.213 723.867 425.213 671.411C425.213 618.956 432.295 602.227 425.213 602.227C421.069 602.227 395.699 577.46 393.354 600.044C391.692 616.061 395.516 661.215 395.516 682.981Z" fill="#C4B58C"/>
<path d="M445.256 574.054C434.034 556.411 432.664 551.879 418.228 561.06C413.739 565.546 406.716 572.461 411.093 590.887C422.315 608.531 425.449 607.046 442.08 606.258C451.111 594.804 451.215 598.817 445.256 574.054Z" fill="#7F7354"/>
<path d="M867.549 677.084C867.549 692.902 867.924 720.357 865.491 736.608C862.631 755.707 856.587 765.367 851.768 778.83C853.184 783.918 860.688 783.673 872.352 783.673C879.182 782.427 889.505 782.981 892.936 778.83C899.797 770.526 900.483 739.453 900.483 687.466C900.483 658.338 908.453 617.063 903.228 606.484C899.127 598.182 892.926 614.792 886.761 614.792C880.596 614.792 872.245 600.951 867.549 609.253C861.566 619.831 867.549 647.956 867.549 677.084Z" fill="#AE9F79"/>
<path d="M859.196 599.982C859.196 617.423 869.998 617.781 884.018 617.781C898.039 617.781 903.766 613.404 903.766 595.963C903.766 578.523 891.919 579.887 878.377 578.164C868.223 578.164 865.966 579.887 859.196 599.982Z" fill="#7F7354"/>
<path d="M909.258 671.812C909.258 686.334 906.515 732.441 900.978 755.209C895.809 776.461 894.722 773.079 894.742 785.48C894.749 790.161 889.221 792.359 905.783 792.359C929.935 795.111 930.199 792.359 933.385 792.359C940.626 792.359 939.621 718.011 939.621 658.739C939.621 599.466 929.611 564.49 922.37 564.49C918.133 564.49 903.375 546.537 900.978 572.056C899.278 590.155 909.258 647.218 909.258 671.812Z" fill="#C4B58C"/>
<path d="M931.239 556.156C920.017 538.513 918.646 533.98 904.211 543.162C899.722 547.648 892.699 554.562 897.076 572.989C908.298 590.632 911.432 589.148 928.063 588.36C937.094 576.906 937.198 580.918 931.239 556.156Z" fill="#AE9F79"/>
<path d="M132.828 248.452C123.076 263.201 120.714 310.124 140.92 335.028C147.803 364.796 114.246 405.757 120.957 412.125C127.625 418.45 183.183 343.928 191.17 349.944C195.666 353.331 186.301 428.182 191.17 431.401C201.586 438.289 226.142 372.717 236.441 377.707C246.899 382.774 246.135 428.396 255.876 431.401C267.017 434.839 288.506 395.333 297.866 395.925C303.596 396.287 312.35 436.28 317.14 435.528C327.249 433.942 331.595 389.654 336.091 382.855C352.237 358.437 319.824 308.555 263.694 271.441C207.565 234.326 148.974 224.034 132.828 248.452Z" fill="#DDDCD9"/>
<path d="M427.949 62.9224C375.417 71.3754 330.216 104.679 283.41 115.829C232.504 127.957 190.974 132.234 144 155.5C135.8 198.152 140.247 203.089 166.402 239.5C198.063 260.112 240.363 289.245 275.839 321.25C294.418 338.011 332.41 407.531 351.549 423.619C375.865 444.057 379.897 433.604 385.963 437.363C395.191 448.229 378.392 550.724 390.781 568.587C403.802 569.134 431.807 610.554 436.208 578.202C441.075 542.428 440.64 426.867 450.662 423.619C473.656 416.167 507.483 428.027 544.268 429.805C592.266 432.125 642.883 425.796 656.458 423.619C754.194 407.944 762.67 376.9 797.555 376.9C806.743 376.9 847.151 409.837 865.695 448.351C883.92 486.205 880.23 529.446 895.291 552.098C903.651 564.672 913.186 556.907 924.887 552.098C936.551 542.881 912.736 470.615 911.81 423.619C911.424 404.058 938.978 354.829 941.406 347.357C949.665 321.932 960.758 247.741 946.224 218.198C926.62 178.35 876.019 137.125 745.934 127.505C684.406 113.801 618.344 118.963 581.435 107.581C518.427 88.1495 500.969 51.1725 427.949 62.9224Z" fill="#C4B58C"/>
<path d="M42.402 193.01C42.402 202.626 39.8833 231.843 39.6485 251.463C39.3174 279.134 41.7138 307.166 41.7138 322.295C41.7138 328.614 44.5289 341.545 45.1285 346.364C45.7814 351.612 44.0945 354.878 45.1285 362.869C45.9065 368.88 45.8169 375.248 55.4812 384.875C67.1837 390.377 79.6961 390.474 96.0956 382.124C107.657 376.238 116.747 360.118 116.747 360.118L127.761 331.235C127.761 331.235 144.745 313.6 158.05 298.914C172.459 283.007 185.992 260.768 190.403 239.772C202.106 184.071 204.637 152.656 183.52 129.055C161.981 104.983 118.688 112.549 101.603 112.549C67.8721 122.865 53.4159 120.803 42.402 193.01Z" fill="#AE9F79"/>
<path d="M203.633 57.7725C206.216 33.7382 197.423 15.1309 193.283 0C220.193 6.18992 233.302 100.414 220.193 103.853C207.083 107.292 200.183 108.255 186.383 103.853C172.584 99.4513 158.554 105.687 153.264 109.355C153.264 114.17 160.326 122.285 151.494 129.988C140.454 139.617 118.375 133.427 111.475 126.549C104.575 119.672 111.865 90.0977 132.564 78.4056C149.124 69.0519 187.073 88.0344 193.973 82.5322C200.873 77.0301 201.563 77.0301 203.633 57.7725Z" fill="#DDDCD9"/>
<path d="M442.733 102.276C451.022 115.439 475.085 149.657 484.179 160.472C493.866 171.993 491.131 142.459 506.283 142.459C521.435 142.459 543.567 187.928 553.255 176.406C562.348 165.591 553.044 147.308 549.11 130.681C539.44 89.8045 530.46 76.6419 493.849 66.2524C473.127 60.3747 433.465 53.3827 424.083 62.7888C413.068 73.8321 424.083 83.5725 442.733 102.276Z" fill="#212121"/>
<path d="M425.982 574.054C414.76 556.411 413.389 551.879 398.954 561.06C394.465 565.546 387.442 572.461 391.819 590.887C403.04 608.531 406.175 607.046 422.806 606.258C431.837 594.804 431.941 598.817 425.982 574.054Z" fill="#AE9F79"/>
<path d="M205.122 120.16C207.891 132.515 212.639 133.151 237.29 127.146C251.129 123.775 269.643 120.16 288.229 113.379C296.782 111.462 322.365 101.709 330.219 98.9233C363.241 87.2109 381.39 76.0861 404.747 67.3192C404.747 46.133 410.884 43.9359 401.994 40.3079C394.175 37.117 371.62 64.3631 360.003 63.9649C352.906 63.7217 332.876 35.966 324.897 36.8675C318.465 37.5943 324.091 68.3937 317.325 69.9099C307.963 72.0078 290.981 49.556 282.907 52.7009C273.178 56.4902 279.697 89.2344 272.582 94.0025C267.294 97.5456 264.69 83.6779 253.811 86.5327C245.663 88.6706 245.948 103.82 237.29 109.249C224.579 117.219 204.227 116.167 205.122 120.16Z" fill="#212121"/>
<path d="M180.526 123.099C180.526 142.67 174.871 151.04 190.31 151.04C205.748 151.04 230.841 134.493 230.841 114.921C230.841 95.3496 246.279 76.7578 230.841 76.7578C215.403 76.7578 180.526 103.527 180.526 123.099Z" fill="#AE9F79"/>
</svg>
