<svg width="380" height="314" viewBox="0 0 380 314" fill="none" xmlns="http://www.w3.org/2000/svg">
<path d="M130.046 316.115C49.2434 308.983 17.2562 219.659 11.363 175.889C38.7369 172.625 148.665 204.172 180.717 241.951C206.358 272.174 192.011 307.022 181.632 320.668L130.046 316.115Z" fill="#4D8C68" stroke="#35625B" stroke-width="6"/>
<path d="M145.934 187.49C101.16 255.454 164.176 338.305 201.28 371.235C238.043 373.147 320.439 370.161 355.926 342.919C391.412 315.676 357.666 241.556 335.867 212.148C314.068 182.739 281.002 200.491 258.717 130.883C236.433 61.2743 141.621 36.7312 97 33.1606C131.967 56.2857 190.708 119.527 145.934 187.49Z" fill="#35625B"/>
</svg>
