<svg width="418" height="528" viewBox="0 0 418 528" fill="none" xmlns="http://www.w3.org/2000/svg">
<path d="M50.3929 464.173C57.9107 466.384 79.0035 518.939 82.4957 544.121C81.9599 549.034 77.5728 552.525 74.0869 550.549C72.8383 549.841 56.9762 524.702 50.3297 506.146C45.3752 492.314 42.875 461.961 50.3929 464.173Z" fill="#4D8C68"/>
<path d="M168.978 535.157C164.569 527.695 115.119 523.032 93.7468 528.047C90.0047 530.359 88.752 536.392 91.5569 539.519C92.5617 540.639 118.242 549.195 135.421 549.964C148.226 550.537 173.386 542.619 168.978 535.157Z" fill="#35625B"/>
<path d="M209.122 472.842C204.713 465.38 155.263 460.718 133.891 465.732C130.149 468.044 128.896 474.078 131.701 477.204C132.706 478.324 158.387 486.881 175.565 487.649C188.37 488.222 213.531 480.305 209.122 472.842Z" fill="#4D8C68"/>
<path d="M239.005 416.762C234.596 409.3 185.146 404.637 163.774 409.652C160.032 411.964 158.779 417.997 161.584 421.124C162.589 422.243 188.27 430.8 205.448 431.569C218.253 432.142 243.414 424.224 239.005 416.762Z" fill="#4D8C68"/>
<path d="M269.669 355.898C265.26 348.436 215.81 343.773 194.438 348.788C190.696 351.1 189.443 357.134 192.248 360.26C193.253 361.38 218.934 369.936 236.112 370.705C248.917 371.278 274.078 363.36 269.669 355.898Z" fill="#4D8C68"/>
<path d="M266.978 311.695C280.173 307.011 303.824 289.839 297.453 285.05C294.25 282.642 286.23 288.788 271.394 293.236C264.771 295.221 256.148 293.009 247.864 295.11C236.187 298.071 224.958 305.466 218.99 309.269C215.758 312.823 215.999 318.647 219.644 320.265C220.95 320.845 249.276 317.978 266.978 311.695Z" fill="#4D8C68"/>
<path d="M88.0257 412.515C95.5435 414.726 116.636 467.281 120.128 492.463C119.593 497.376 115.206 500.867 111.72 498.891C110.471 498.183 94.609 473.044 87.9625 454.489C83.008 440.656 80.5078 410.304 88.0257 412.515Z" fill="#4D8C68"/>
<path d="M117.959 353.55C125.477 355.761 146.57 408.316 150.062 433.498C149.526 438.411 145.139 441.902 141.653 439.926C140.405 439.218 124.543 414.079 117.896 395.524C112.942 381.692 110.441 351.339 117.959 353.55Z" fill="#4D8C68"/>
<path d="M148.432 302.779C155.95 304.99 177.043 357.545 180.535 382.727C179.999 387.64 175.612 391.131 172.126 389.155C170.877 388.447 155.015 363.308 148.369 344.753C143.414 330.921 140.914 300.568 148.432 302.779Z" fill="#4D8C68"/>
<path d="M172.631 254.687C180.149 256.898 201.242 309.453 204.734 334.635C204.198 339.548 199.811 343.039 196.325 341.063C195.077 340.355 179.214 315.216 172.568 296.66C167.613 282.828 165.113 252.475 172.631 254.687Z" fill="#4D8C68"/>
<path d="M268.038 20.1254C285.269 22.3724 287.407 133.327 280.291 171.507C262.686 164.76 242.697 97.1903 255.25 79.49C265.292 65.3297 262.699 34.055 268.038 20.1254Z" fill="#4D8C68"/>
<path d="M379.726 120.602C377.933 144.732 294.424 202.738 264.404 213.53C267.983 188.254 316.387 134.588 332.892 135.247C353.51 136.07 366.508 113.192 379.726 120.602Z" fill="#4D8C68"/>
<path d="M247.793 228.261C258.916 213.893 240.801 138.996 229.229 117.682C218.54 133.598 218.957 188.187 228.636 196.23C240.726 206.278 236.579 225.658 247.793 228.261Z" fill="#4D8C68"/>
<path d="M342.232 226.348C338.084 251.263 263.693 270.295 238.47 271.311C244.678 252.053 289.176 220.82 303.174 226.185C307.297 227.765 313.708 222.003 319.646 222.049C328.424 222.115 339.574 222.061 342.232 226.348Z" fill="#4D8C68"/>
<path d="M222.059 289.578C237.384 270.17 203.218 197.65 187.707 176.563C177.794 193.995 183.893 250.159 196.784 258.043C200.581 260.365 200.548 269.269 204.405 274.05C210.107 281.118 217.25 290.186 222.059 289.578Z" fill="#4D8C68"/>
<path d="M286.91 152.86C231.177 282.543 104.978 549.695 46.0513 580.847" stroke="#35625B" stroke-width="30" stroke-linecap="round"/>
</svg>
