<svg width="1920" height="1500" viewBox="0 0 1920 1500" fill="none" xmlns="http://www.w3.org/2000/svg">
<path d="M0 1045L109.841 1022L360 1045L781.587 1022L1055.24 1070.5L1344.76 1045L1549.84 1080L1757.46 1022L1920 1045V1500H0V1045Z" fill="#C4B58C"/>
<path d="M1546.39 595.507C1548.61 751.64 1543.42 1072.13 1504.84 1105.04" stroke="#4D8C68" stroke-width="10" stroke-linecap="round"/>
<path d="M1403.68 648.109C1440.17 788.174 1527.99 1073.57 1587.34 1094.65" stroke="#35625B" stroke-width="10" stroke-linecap="round"/>
<path d="M1402.07 934.62C1384.7 1009.27 1472.76 1092.61 1518.97 1124.94C1539.91 1101.54 1583.56 1051.49 1590.58 1038.56C1599.36 1022.39 1614.85 966.957 1609.07 953.56C1598.9 930.001 1593.82 917.066 1573.49 905.055C1558.82 896.389 1548.54 899.512 1518.97 849.159C1495.31 808.877 1444.12 802.502 1421.48 804.35C1422.25 816.668 1419.44 859.969 1402.07 934.62Z" fill="#35625B" stroke="#4D8C68" stroke-width="6" stroke-linecap="round"/>
<path d="M719.693 931.23C734.729 932.623 799.088 1003.11 817.627 1038.46C818.981 1045.64 812.494 1051.7 805.067 1049.69C802.407 1048.96 760.888 1016.62 739.654 991.539C723.825 972.845 704.657 929.837 719.693 931.23Z" fill="#35625B"/>
<path d="M974.146 1005.06C962.379 995.39 868.203 1000.42 830.864 1012.7C825.012 1016.91 825.569 1025.87 832.28 1029.7C834.683 1031.07 886.526 1037.27 918.834 1034.29C942.918 1032.08 985.913 1014.74 974.146 1005.06Z" fill="#35625B"/>
<path d="M1018.98 906.028C1007.21 896.354 913.035 901.388 875.696 913.661C869.844 917.87 870.401 926.835 877.112 930.66C879.515 932.03 931.358 938.229 963.666 935.258C987.75 933.043 1030.74 915.701 1018.98 906.028Z" fill="#35625B"/>
<path d="M1047.71 818.38C1035.95 808.707 941.769 813.74 904.43 826.014C898.578 830.223 899.135 839.187 905.846 843.012C908.25 844.383 960.092 850.582 992.401 847.611C1016.48 845.396 1059.48 828.054 1047.71 818.38Z" fill="#35625B"/>
<path d="M1075.62 723.677C1063.86 714.004 969.679 719.037 932.34 731.311C926.488 735.52 927.045 744.484 933.756 748.309C936.16 749.68 988.002 755.878 1020.31 752.907C1044.39 750.693 1087.39 733.351 1075.62 723.677Z" fill="#35625B"/>
<path d="M1049.47 660.82C1071.76 650.961 1107.52 620.683 1093.39 615.316C1086.28 612.616 1074.31 623.347 1048.85 633.256C1037.48 637.679 1020.39 636.547 1006 641.53C985.7 648.554 968.359 661.84 959.082 668.72C954.772 674.591 958.006 682.9 965.558 684.36C968.263 684.883 1019.56 674.045 1049.47 660.82Z" fill="#35625B"/>
<path d="M764.955 848.097C779.991 849.49 844.35 919.98 862.889 955.324C864.243 962.508 857.756 968.565 850.329 966.553C847.669 965.832 806.15 933.484 784.916 908.406C769.087 889.712 749.919 846.704 764.955 848.097Z" fill="#35625B"/>
<path d="M792.412 756.295C807.448 757.688 871.807 828.178 890.346 863.523C891.7 870.707 885.213 876.763 877.786 874.751C875.126 874.03 833.607 841.682 812.373 816.604C796.544 797.91 777.376 754.902 792.412 756.295Z" fill="#35625B"/>
<path d="M824.791 676.134C839.827 677.527 904.186 748.017 922.725 783.362C924.079 790.546 917.592 796.602 910.165 794.59C907.504 793.869 865.986 761.521 844.752 736.443C828.923 717.749 809.755 674.741 824.791 676.134Z" fill="#35625B"/>
<path d="M846.775 601.31C861.812 602.703 926.17 673.193 944.709 708.537C946.063 715.721 939.576 721.777 932.149 719.766C929.489 719.045 887.97 686.697 866.736 661.619C850.907 642.925 831.739 599.917 846.775 601.31Z" fill="#35625B"/>
<path d="M911.968 241.738C945.082 240.878 1002.13 399.754 1007.16 456.286C971.203 450.771 901.714 358.451 916.587 330.047C928.485 307.324 908.705 263.014 911.968 241.738Z" fill="#35625B"/>
<path d="M1167.7 359.573C1175.91 394.659 1048.38 497.795 997.725 520.419C992.289 483.262 1056.62 394.689 1087.62 391.72C1126.35 388.011 1139.58 352.064 1167.7 359.573Z" fill="#35625B"/>
<path d="M973.896 545.52C987.705 522.242 918.195 418.952 886.481 391.08C874.222 416.479 901.11 494.796 922.954 504.053C950.24 515.617 951.8 544.44 973.896 545.52Z" fill="#35625B"/>
<path d="M1148.57 520.369C1152.78 557.142 1023.56 602.128 977.149 609.572C979.479 580.436 1047.28 525.014 1075.87 529.4C1084.29 530.692 1093.46 520.894 1104.52 519.551C1120.87 517.564 1141.58 514.841 1148.57 520.369Z" fill="#35625B"/>
<path d="M955.363 639.705C974.576 608.192 876.359 512.124 837.431 485.513C827.338 512.906 865.544 592.136 893.285 600.403C901.455 602.837 905.653 615.636 915.112 621.589C929.095 630.389 946.714 641.72 955.363 639.705Z" fill="#35625B"/>
<path d="M1010.55 427.93C968.956 627.436 862.1 1041.13 767.435 1099.86" stroke="#4D8C68" stroke-width="30" stroke-linecap="round"/>
<path d="M1641.36 539.942C1696.4 543.878 1744.56 474.407 1664.61 421.072C1622.58 393.037 1581.78 435.904 1557.67 458.218C1545.09 469.864 1511.92 459.538 1511.92 459.538C1511.92 459.538 1461.57 442.089 1447.04 474.764C1434.25 503.509 1453.03 533.07 1478.7 548.823C1487.15 554.681 1497.22 569.718 1469.91 582.99C1435.77 599.581 1438.82 656.04 1464.43 677.369C1490.03 698.697 1519.22 661.593 1531.93 643.99C1544.65 626.386 1569.99 656.654 1588.82 670.917C1607.65 685.18 1651.13 665.673 1669.15 646.568C1687.16 627.462 1682.7 605.029 1671.79 585.437C1660.88 565.844 1586.33 536.006 1641.36 539.942Z" fill="#4D8C68"/>
<path d="M247.781 1064.79C128.621 1054.27 81.45 922.549 72.7593 858.002C113.127 853.19 275.237 899.711 322.504 955.423C360.317 999.993 339.159 1051.38 323.854 1071.51L247.781 1064.79Z" fill="#4D8C68" stroke="#35625B" stroke-width="6"/>
<path d="M279.924 857.26C213.896 957.486 306.825 1079.67 361.543 1128.23C415.756 1131.05 537.266 1126.64 589.597 1086.47C641.929 1046.3 592.164 936.991 560.017 893.623C527.869 850.254 479.108 876.432 446.245 773.782C413.382 671.131 273.563 634.937 207.762 629.672C259.327 663.774 345.952 757.035 279.924 857.26Z" fill="#C4D977"/>
<path d="M1244.22 539.001C1249.86 478.933 1318.65 489.586 1337.27 474.826C1355.88 460.065 1352.03 436.963 1398.88 430.545C1445.72 424.127 1418.77 474.825 1457.92 474.826C1476.2 474.826 1509.1 492.871 1520.17 521.674C1532.82 554.556 1521.49 599.461 1505.41 612.803C1490.68 625.031 1461.81 620.969 1445.73 626.921C1428.14 633.433 1408.51 648.099 1414.28 667.352C1414.28 704.574 1430.97 737.517 1381.55 753.989C1332.14 770.46 1316.7 762.988 1302.62 741.795C1294.53 729.625 1292.71 711.845 1262.19 714.842C1178.5 723.056 1175.12 662.218 1192.88 619.22C1205.6 588.416 1238.57 599.069 1244.22 539.001Z" fill="#C4D977"/>
<path d="M441.059 827.198C372.613 881.607 470.589 1056.65 528.133 1137.37C567.336 1098.14 631.802 984.285 631.802 984.285C631.802 984.285 639.627 931.429 688.319 886.432C737.011 841.434 717.244 684.029 675.381 652.768C641.647 627.577 694.435 577.618 683.335 533.887C677.018 508.998 661.641 467.055 616.061 441.457C570.481 415.859 582.671 341.514 594.464 307.542C487.178 388.852 483.124 569.428 494.507 649.553C505.21 686.097 509.505 772.789 441.059 827.198Z" fill="#6CA663"/>
<path d="M631.487 950.26C535.587 932.38 504.58 1049.6 501.064 1110.45C551.572 1155.29 695.448 1155.35 734.927 1140.44C774.406 1125.53 695.82 1082.62 786.879 1074.63C877.938 1066.64 864.872 998.552 889.673 949.33C916.857 895.38 939.13 879.174 946.011 839.985C903.213 872.216 880.834 873.499 806.711 880.032C760.236 884.127 737.568 884.181 706.846 910.715C676.125 937.248 727.386 968.14 631.487 950.26Z" fill="#C4D977" stroke="#6CA663" stroke-width="6"/>
<path d="M1571.45 883.032C1475.23 962.11 1504.41 1070.41 1531.03 1114.68C1601.89 1114.68 1704.69 1038.29 1749.1 994.361C1793.52 950.428 1805.99 883.032 1795.51 818.132C1787.13 766.211 1787.03 734.926 1788.03 725.773C1755.92 745.244 1667.66 803.953 1571.45 883.032Z" fill="#4D8C68"/>
<path d="M1056.63 1147.72C1031.17 1146.86 972.301 1132.96 940.47 1084.18C900.682 1023.22 869.877 985.354 890.414 942.999C906.842 909.114 909.665 875.829 909.022 863.421C932.339 877.54 972.195 921.873 998.226 942.999C997.156 925.457 999.894 889.091 1019.4 883.957C1038.91 878.823 1025.82 869.198 1027.75 853.795C1029.67 838.392 1041.74 821.194 1069.46 826.841C1097.18 832.489 1074.59 806.947 1081.65 787.052C1088.71 767.158 1127.35 735.327 1140.69 731.22C1157.38 726.086 1140.69 785.769 1140.69 796.678C1140.69 807.588 1150.32 871.121 1165.08 877.539C1176.89 882.674 1159.95 928.239 1165.08 942.999C1170.22 957.758 1178.42 939.455 1185.62 942.999C1201.04 950.596 1179.84 986.638 1179.84 986.638C1235.67 951.982 1318.46 922.463 1363.38 918.612C1347.55 937.865 1320.26 975.086 1337.71 969.952C1359.53 963.535 1375.58 1089.96 1322.31 1127.82C1279.7 1158.11 1127.43 1153.71 1056.63 1147.72Z" fill="#35625B"/>
<path d="M1056.63 1147.72C1031.17 1146.86 972.301 1132.96 940.47 1084.18C900.682 1023.22 869.877 985.354 890.414 942.999C906.842 909.114 909.665 875.829 909.022 863.421C932.339 877.54 972.195 921.873 998.226 942.999M1056.63 1147.72C1043.58 1091.89 1042.51 978.936 998.226 942.999M1056.63 1147.72C1127.43 1153.71 1279.7 1158.11 1322.31 1127.82C1375.58 1089.96 1359.53 963.535 1337.71 969.952C1320.26 975.086 1347.55 937.865 1363.38 918.612C1318.46 922.463 1235.67 951.982 1179.84 986.638M1056.63 1147.72C1081.44 1112.85 1129.12 1018.12 1179.84 986.638M998.226 942.999C997.156 925.457 999.894 889.091 1019.4 883.957C1038.91 878.823 1025.82 869.198 1027.75 853.795C1029.67 838.392 1041.74 821.194 1069.46 826.841C1097.18 832.489 1074.59 806.947 1081.65 787.052C1088.71 767.158 1127.35 735.327 1140.69 731.22C1157.38 726.086 1140.69 785.769 1140.69 796.678C1140.69 807.588 1150.32 871.121 1165.08 877.539C1176.89 882.674 1159.95 928.239 1165.08 942.999C1170.22 957.758 1178.42 939.455 1185.62 942.999C1201.04 950.596 1179.84 986.638 1179.84 986.638" stroke="#4D8C68" stroke-width="6"/>
<path d="M633.581 890.355C618.509 891.514 556.534 977.542 539.273 1021.22C538.193 1030.19 544.957 1038.05 552.35 1035.82C554.998 1035.02 595.495 996.009 615.871 965.338C631.061 942.475 648.653 889.197 633.581 890.355Z" fill="#35625B"/>
<path d="M380.502 973.111C391.959 961.421 486.901 971.447 524.948 988.335C531.001 993.852 530.793 1005.09 524.192 1009.63C521.828 1011.26 469.916 1017.01 437.296 1012.01C412.98 1008.28 369.044 984.802 380.502 973.111Z" fill="#35625B"/>
<path d="M331.506 846.928C342.963 835.237 437.905 845.264 475.952 862.151C482.005 867.669 481.797 878.909 475.196 883.451C472.832 885.078 420.92 890.828 388.3 885.825C363.984 882.096 320.048 858.618 331.506 846.928Z" fill="#35625B"/>
<path d="M299.15 735.685C310.608 723.994 405.55 734.02 443.597 750.908C449.649 756.426 449.441 767.666 442.84 772.208C440.476 773.835 388.565 779.585 355.945 774.582C331.629 770.852 287.693 747.375 299.15 735.685Z" fill="#35625B"/>
<path d="M267.353 615.61C278.811 603.92 373.753 613.946 411.8 630.834C417.852 636.351 417.645 647.592 411.044 652.134C408.679 653.761 356.768 659.51 324.148 654.508C299.832 650.778 255.896 627.301 267.353 615.61Z" fill="#35625B"/>
<path d="M291.189 537.668C268.373 524.406 231.205 484.962 245.215 478.774C252.26 475.662 264.726 489.615 290.728 503.064C302.335 509.068 319.485 508.318 334.165 515.144C354.859 524.766 372.827 542.139 382.43 551.147C386.997 558.693 384.07 569.004 376.53 570.541C373.829 571.092 321.797 555.46 291.189 537.668Z" fill="#35625B"/>
<path d="M584.784 784.135C569.712 785.294 507.737 871.321 490.476 914.996C489.396 923.969 496.161 931.832 503.553 929.597C506.201 928.796 546.698 889.788 567.074 859.117C582.264 836.254 599.857 782.976 584.784 784.135Z" fill="#35625B"/>
<path d="M553.55 667.723C538.478 668.881 476.503 754.909 459.241 798.584C458.162 807.557 464.926 815.42 472.319 813.184C474.967 812.384 515.464 773.376 535.84 742.705C551.029 719.842 568.622 666.564 553.55 667.723Z" fill="#35625B"/>
<path d="M517.831 565.743C502.759 566.902 440.784 652.93 423.523 696.605C422.443 705.577 429.207 713.441 436.6 711.205C439.248 710.404 479.745 671.397 500.121 640.726C515.311 617.862 532.903 564.584 517.831 565.743Z" fill="#35625B"/>
<path d="M492.765 470.875C477.693 472.034 415.717 558.061 398.456 601.737C397.377 610.709 404.141 618.572 411.534 616.337C414.182 615.536 454.679 576.529 475.055 545.858C490.244 522.994 507.837 469.716 492.765 470.875Z" fill="#35625B"/>
<path d="M413.047 16.5736C379.699 14.1911 328.552 211.547 325.712 282.373C361.672 276.857 427.951 163.605 411.872 127.337C399.009 98.3214 417.166 43.4312 413.047 16.5736Z" fill="#35625B"/>
<path d="M160.403 154.557C153.524 198.314 285.875 332.899 337.724 363.314C341.733 316.847 273.533 203.042 242.225 198.092C203.117 191.91 188.399 146.229 160.403 154.557Z" fill="#35625B"/>
<path d="M362.692 395.788C347.885 366 413.753 238.968 444.562 205.198C457.894 237.59 433.923 334.923 412.311 345.695C385.315 359.151 384.879 395.3 362.692 395.788Z" fill="#35625B"/>
<path d="M185.967 357.32C183.182 403.354 314.946 464.952 361.931 476.128C358.441 439.432 288.056 367.139 259.461 371.525C251.041 372.817 241.436 360.148 230.254 358.025C213.724 354.886 192.784 350.651 185.967 357.32Z" fill="#35625B"/>
<path d="M385.032 514.842C364.464 474.495 459.497 357.665 497.613 325.764C508.844 360.574 473.523 458.61 445.939 467.906C437.816 470.643 434.096 486.557 424.813 493.664C411.092 504.17 393.813 517.713 385.032 514.842Z" fill="#35625B"/>
<path d="M321.188 246.615C370.877 498.894 494.642 1022.83 592.187 1100.33" stroke="#4D8C68" stroke-width="30" stroke-linecap="round"/>
<path d="M1362.61 558.275C1368.15 567.955 1383.34 564.581 1380.97 578.988C1378.59 593.394 1364.27 589.654 1360.68 589.08C1357.1 588.505 1349.61 587.969 1353.62 593.571C1358.11 599.835 1357.71 608.527 1351.93 614.622C1341.12 626.01 1331.16 618.403 1329.24 612.182C1327.32 605.961 1330.79 604.467 1324.7 601.272C1321.54 599.616 1321.62 603.953 1314.23 600.076C1312.19 599.011 1307.51 589.08 1309.54 579.367C1311.27 571.11 1317.26 571.11 1327.96 571.11L1327.96 571.11C1329.61 571.11 1338.43 574.605 1340.79 560.2C1342.27 551.216 1356.69 547.923 1362.61 558.275Z" fill="#4D8C68"/>
<path d="M1594.03 540.948C1589.82 551.273 1603.27 554.389 1599.42 567.901C1595.56 581.414 1575.34 568.081 1573.58 564.905C1571.83 561.73 1562.21 561.287 1560.27 567.901C1558.11 575.296 1552.59 575.757 1544.23 574.961C1528.6 573.474 1532.29 559.737 1536.01 554.39C1539.72 549.043 1543.04 550.858 1541.8 544.089C1541.15 540.579 1537.79 543.321 1536.28 535.108C1535.87 532.851 1535.32 525.44 1544.23 521.054C1551.79 517.324 1557.23 525.25 1567.55 528.06C1572.46 529.396 1579.52 521.054 1590.43 523.621C1593.94 524.445 1598.53 529.907 1594.03 540.948Z" fill="#35625B"/>
<path d="M1555.78 1076.81C1556.42 1047.29 1575.16 979.394 1644.98 943.97C1714.8 908.545 1742.1 832.946 1747.02 799.575" stroke="#35625B" stroke-width="6" stroke-linecap="round"/>
<path d="M1341.43 807.276C1377.37 895.838 1467.99 1076.81 1542.94 1092.21" stroke="#4D8C68" stroke-width="10" stroke-linecap="round"/>
<path d="M1383.14 717.628C1407.76 721.165 1424.54 777.339 1402.89 794.15C1381.23 810.961 1357.74 798.507 1350.2 819.666C1342.66 840.825 1341.05 870.224 1322.14 871.666C1303.23 873.107 1271.79 875.921 1271.46 848.967C1271.23 830.21 1260.49 819.051 1240.42 818.033C1220.34 817.014 1204.72 804.492 1215.05 775.474C1219.82 762.088 1236.43 743.929 1249.64 739.568C1265.07 734.476 1269.57 717.996 1271.46 707.003C1276.9 675.379 1302.07 659.316 1324.73 667.389C1357.45 679.044 1322.22 708.879 1383.14 717.628Z" fill="#6CA663"/>
<path d="M1285.6 765.561C1291.24 762.994 1286.24 754.651 1293.94 752.084C1301.64 749.518 1300.36 759.144 1301 761.069C1301.64 762.994 1308.9 764.513 1310.63 761.069C1312.55 757.218 1314.48 755.935 1318.97 757.218C1327.36 759.616 1328.59 768.128 1326.03 770.695C1323.46 773.262 1315.76 766.845 1315.76 770.695C1315.76 774.546 1321.54 775.008 1321.54 779.68C1321.54 780.964 1322.82 782.889 1312.55 787.381C1304.34 790.975 1301.86 782.889 1301.64 778.396C1300.57 776.685 1296.51 773.904 1288.8 776.471C1279.18 779.68 1278.54 768.77 1285.6 765.561Z" fill="#C4D977"/>
</svg>
