<svg width="1512" height="466" viewBox="0 0 1512 466" fill="none" xmlns="http://www.w3.org/2000/svg">
<path d="M324.009 293.429C228.554 287.535 58.23 328.165 -15 349.216V475H1530V299.745C1527.95 312.902 1456.77 332.375 1441.41 342.375C1426.04 352.374 1400.44 356.058 1375.86 324.481C1351.28 292.903 1413.75 293.429 1461.38 251.326C1509 209.223 1473.16 205.012 1461.38 214.486C1449.6 223.959 1408.63 270.273 1392.76 270.273C1376.88 270.273 1375.86 249.221 1340.01 270.273C1304.16 291.325 1281.63 290.272 1292.39 270.273C1303.14 250.274 1329.26 212.907 1281.63 227.643C1234.01 242.379 1244.25 205.012 1243.23 196.592C1242.2 188.171 1264.73 166.593 1292.39 153.962C1320.04 141.331 1294.43 132.91 1281.63 137.648C1268.83 142.385 1244.25 169.225 1226.84 153.962C1209.43 138.7 1220.69 122.385 1213.01 113.964C1205.33 105.544 1188.94 124.49 1193.04 161.33C1197.14 198.171 1172.56 188.697 1160.27 181.856C1147.97 175.014 1163.34 147.12 1152.07 153.962C1140.81 160.804 1149 148.173 1160.27 105.017C1171.53 61.8611 1135.17 93.9654 1139.27 101.333C1143.37 108.701 1134.15 125.542 1130.05 161.33C1125.95 197.118 1114.69 193.434 1112.64 196.592C1110.59 199.749 1051.19 202.381 1044.02 140.805C1036.85 79.229 1005.1 72.3869 995.37 70.808C985.64 69.2292 957.474 80.2813 946.208 52.3878C934.942 24.4944 931.869 6.07411 923.676 5.02153C915.482 3.96895 932.894 41.8619 920.603 41.3357C908.313 40.8094 903.192 39.7568 923.676 64.4925C944.16 89.2282 915.482 93.9654 908.825 88.7019C902.168 83.4384 895.51 58.7033 890.39 64.4925C885.285 70.2632 877.127 67.1438 855.266 58.7839L855.055 58.7033C833.034 50.2829 833.547 43.4405 808.454 17.1259C783.361 -9.18863 781.825 20.81 782.337 24.494C782.849 28.1781 790.018 66.5974 760.317 67.1236C730.615 67.6499 720.373 78.1758 708.595 91.3331C696.816 104.49 715.252 124.49 743.417 98.702C771.583 72.9137 778.752 90.2813 776.192 93.9654C773.631 97.6494 738.808 110.807 751.611 113.964C764.413 117.122 762.877 133.964 760.317 137.648C757.756 141.332 738.808 146.594 708.595 140.805C678.381 135.016 684.014 169.225 689.135 178.698C694.256 188.171 689.135 198.697 681.453 205.012C673.772 211.327 657.897 188.171 623.074 205.012C588.252 221.853 628.195 255.01 633.828 244.484C639.461 233.959 661.482 238.168 684.014 238.168C706.546 238.168 699.889 276.062 681.453 270.273C663.018 264.483 667.115 276.062 657.897 284.483C648.679 292.903 673.26 305.534 673.26 310.797C673.26 316.06 650.215 332.375 673.26 337.638C696.304 342.901 689.135 301.324 694.256 301.324C699.377 301.324 718.837 298.692 715.252 270.273C711.667 241.853 727.542 253.958 729.591 255.01C731.639 256.063 731.639 269.746 727.542 276.062C723.445 282.377 714.74 322.376 738.808 324.481C758.063 326.165 756.732 304.482 753.659 293.429C741.028 275.009 727.337 231.537 773.631 205.012C831.498 171.856 882.708 212.38 898.583 238.168C914.458 263.957 935.454 345.006 870.418 367.11C805.381 389.214 750.587 383.425 689.135 367.11C627.683 350.795 443.328 300.798 324.009 293.429Z" fill="#569CDB" stroke="#0159A9" stroke-width="10" stroke-linecap="round"/>
</svg>
