<svg width="1512" height="253" viewBox="0 0 1512 253" fill="none" xmlns="http://www.w3.org/2000/svg">
<path d="M106.692 191.126C25.1276 204.645 -9.75447 166.232 -17 145.335V250H1547V138.248C1532.92 129.526 1524.57 122.985 1522.16 120.804C1489.55 106.631 1421.24 115.898 1382.42 145.335C1343.61 174.772 1223.02 209.66 1173.34 216.202C1123.65 222.744 915.086 182.949 813.649 128.981C712.211 75.0135 603.011 149.696 570.406 157.873C537.801 166.05 526.415 140.429 514.512 138.248C502.608 136.068 496.915 122.44 497.95 98.4541C498.985 74.4684 508.301 69.0171 528.485 55.3888C548.669 41.7606 538.836 34.1288 537.801 31.4032C536.766 28.6775 523.827 19.4103 516.582 34.1288C509.336 48.8473 486.565 63.5658 480.354 63.5658C474.144 63.5658 470.521 63.5658 470.521 71.1976C470.521 78.8294 455.512 110.992 444.126 107.721C432.741 104.45 420.837 104.45 411.004 115.898C401.171 127.346 339.584 170.956 340.619 138.248C341.654 105.541 318.882 97.3638 315.259 91.9125C311.637 86.4612 305.944 89.732 301.803 91.9125C297.663 94.093 274.891 96.8187 268.681 84.2807C262.471 71.7427 243.839 55.3888 236.076 49.9375C228.313 44.4863 226.243 53.2083 211.752 55.3888C197.261 57.5694 203.989 37.3995 165.691 8.50762C127.393 -20.3842 180.182 73.378 185.357 82.1001C190.533 90.8221 208.647 174.227 106.692 191.126Z" fill="#0159A9" stroke="#0159A9" stroke-width="6"/>
</svg>
