<svg width="515" height="403" viewBox="0 0 515 403" fill="none" xmlns="http://www.w3.org/2000/svg">
<path d="M190.579 83.5044C186.637 92.9455 168.336 84.3482 130.03 68.356C91.7243 52.3639 62.9074 33.0869 66.8489 23.6458C67.5641 21.9327 72.5091 24.4118 75.0629 23.6458C77.7118 22.8512 76.372 12.7276 80.6553 12.8985C83.4417 13.0097 83.2412 21.4852 86.5971 21.986C89.97 22.4894 87.4651 14.4633 91.3157 15.3452C94.927 16.1722 91.9113 23.4604 95.8594 24.6075C99.9894 25.8073 102.636 30.5862 107.044 32.1221C110.114 33.1919 121.877 23.3812 125.044 24.6082C127.482 25.5523 121.866 35.5173 124.345 36.5519C126.222 37.3359 129.685 29.9223 131.51 30.7267C136 32.7057 132.459 38.9742 136.578 41.0375C140.308 42.9065 140.551 37.0456 143.918 38.9404C148.01 41.2435 142.9 44.8804 146.364 47.1542C150.329 49.7566 153.15 38.5774 156.151 41.0375C160.067 44.2479 156.442 52.0934 158.423 54.8436C158.928 55.5453 164.582 45.2856 168.209 47.1542C170.194 48.1767 162.903 57.2936 165.413 58.5136C167.468 59.5119 171.921 54.6523 174.151 55.7174C176.184 56.6882 174.021 64.175 176.074 65.1545C179.143 66.6195 184.48 57.1537 187.258 58.5136C189.636 59.6773 183.794 71.6838 185.685 72.6692C189.907 74.8689 190.811 82.9471 190.579 83.5044Z" fill="#303032"/>
<path d="M460.937 158.649C460.937 176.877 445.558 233.272 435.597 257.04C428.018 292.314 435.405 284.826 425.985 284.826C421.411 284.826 412.651 298.672 409.033 289.195C406.673 283.015 406.345 254.217 404.489 246.379C400.364 228.955 394.353 228.216 394.353 202.864C394.353 148.621 374.224 85.5996 388.412 85.5996C402.6 85.5996 460.937 104.407 460.937 158.649Z" fill="#303032"/>
<path d="M433.32 157.777C433.32 189.736 416.193 208.632 386.135 249.177C383.791 254.674 388.581 273.119 394.873 294.265C392.592 305.114 373.68 312.995 368.134 314.537C361.031 316.512 350.658 282.206 343.318 258.439C322.522 258.439 311.052 260.361 302.599 260.361C287.699 260.361 257.336 249.177 238.462 249.177C230.348 253.419 234.68 294.951 229.899 303.003C224.275 312.472 219.937 303.003 209.102 312.09C202.115 307.794 197.737 282.551 189.005 260.361C185.305 250.96 173.961 224.277 171.354 222.264C157.199 211.33 157.934 189.15 145.489 177.701C133.193 166.388 115.031 140.408 103.547 131.389C93.8668 123.787 69.4688 133.77 69.4688 125.446C69.4688 112.474 73.6414 52.0671 82.7505 40.863C92.5518 28.8075 121.023 45.2335 145.489 57.4665C169.956 69.6991 190.578 88.5728 214.52 88.5728C234.897 84.1587 231.297 85.9514 266.598 92.9418C285.822 94.5146 293.661 92.9432 302.599 92.9418C320.815 92.9389 365.008 82.5148 380.892 83.1552C409.028 83.1552 433.32 121.737 433.32 157.777Z" fill="white"/>
<path d="M376.879 300.382C376.32 301.5 365.112 303.76 359.578 304.751L361.675 308.596C365.17 307.314 372.965 304.751 376.18 304.751C380.2 304.751 387.365 301.605 388.763 301.431C389.882 301.291 389.928 299.275 389.812 298.285C387.773 298.984 383.52 300.382 382.821 300.382C381.947 300.382 380.549 300.382 380.549 299.858C380.549 299.334 386.491 296.363 387.365 295.489C388.064 294.79 391.734 294.382 393.482 294.265C393.249 293.1 392.608 290.595 391.909 289.896C391.035 289.022 377.578 298.984 376.879 300.382Z" fill="#303032"/>
<path d="M375.477 289.722C372.261 289.302 361.204 293.625 356.078 295.838L357.476 300.033C362.428 298.635 372.96 295.838 375.477 295.838C378.622 295.838 380.545 293.042 381.768 291.12C382.991 289.198 387.36 287.8 389.982 286.227C392.079 284.969 390.855 283.722 389.982 283.256H385.263C383.341 285.586 378.692 290.141 375.477 289.722Z" fill="#303032"/>
<path d="M374.426 276.616C367.995 275.637 356.484 279.703 351.532 281.859C351.252 281.979 351.066 282.374 351.008 282.557L353.105 288.674C353.513 289.664 354.398 291.505 354.678 290.945C355.027 290.246 368.833 285.877 371.63 285.353C374.426 284.829 381.067 283.955 381.766 281.859C382.465 279.762 384.911 279.411 387.008 278.363C388.686 277.524 388.29 273.935 387.882 272.246C386.368 272.537 383.024 273.295 381.766 273.994C380.193 274.867 382.465 277.839 374.426 276.616Z" fill="#303032"/>
<path d="M359.224 260.712C356.428 258.754 349.321 263.857 346.117 266.654L348.04 273.993C352.409 273.177 362.09 271.197 365.865 269.799C370.584 268.051 384.564 266.654 385.963 266.654C387.081 266.654 385.497 260.711 384.564 257.74L377.749 259.663C372.739 260.828 362.02 262.669 359.224 260.712Z" fill="#303032"/>
<path d="M357.826 242.71C351.115 241.871 344.544 249.817 342.098 253.895L344.544 262.108L357.826 253.021C359.049 251.914 364.222 250.085 375.127 251.623C386.032 253.161 384.914 247.836 382.992 244.982C377.399 244.574 364.537 243.549 357.826 242.71Z" fill="#303032"/>
<path d="M341.576 229.778C337.102 230.616 336.1 237.234 336.159 240.438L338.256 245.681C340.469 243.933 345.666 239.914 348.741 237.817C352.586 235.195 369.887 231.001 374.431 233.273C378.066 235.09 388.412 234.846 393.131 234.496C393.014 231.991 392.501 227.226 391.383 228.205C390.264 229.183 377.519 225.001 371.285 222.787C363.246 224.768 346.05 228.939 341.576 229.778Z" fill="#303032"/>
<path d="M384.217 205.136C389.251 204.996 413.111 207.641 424.412 208.981L413.053 218.243C405.946 217.311 389.286 215.063 379.499 213.525C367.266 211.602 339.129 224.01 336.508 223.836C333.887 223.661 331.964 231.35 331.615 230.477C331.265 229.603 330.916 227.156 330.916 225.234C330.916 223.311 328.469 224.185 330.916 217.02C333.362 209.855 377.926 205.311 384.217 205.136Z" fill="#303032"/>
<path d="M348.917 175.426C364.855 166.059 414.044 166.28 436.647 167.562V156.378C432.103 157.718 417.773 156.902 407.986 151.31C395.753 144.319 360.976 155.853 344.373 158.3C327.771 160.747 307.499 175.426 291.596 189.407C275.693 203.389 287.227 213.35 291.596 223.311C295.091 231.28 316.237 238.515 326.373 241.136C328.703 240.845 330.917 239.389 321.13 235.894C308.897 231.525 302.431 221.039 297.887 218.592C293.343 216.146 294.567 202.689 302.431 194.475C310.295 186.262 328.994 187.135 348.917 175.426Z" fill="#303032"/>
<path d="M343.318 120.725C349.435 119.675 412.173 108.144 421.086 108.492C429.999 108.841 436.29 129.463 436.29 129.463C423.941 132.143 396.515 137.153 385.61 135.755C371.978 134.007 351.357 141.871 346.463 141.172C341.57 140.473 320.075 154.804 319.026 156.551C317.978 158.299 308.191 163.192 306.094 162.843C303.997 162.493 286.695 174.202 277.783 185.561C268.87 196.921 273.239 205.834 274.637 217.018C276.035 228.203 310.463 248.65 315.88 250.747C321.298 252.844 326.89 256.165 314.832 254.767C302.773 253.368 276.909 231.349 270.967 226.63C265.025 221.912 268.346 220.164 262.229 207.581C256.112 194.998 266.948 174.377 271.841 168.959C276.734 163.542 306.618 145.367 309.939 142.92C313.259 140.473 318.323 134.062 320.424 131.912C327.764 124.399 337.201 121.776 343.318 120.725Z" fill="#303032"/>
<path d="M252.447 115.835C254.963 110.662 270.156 99.1164 277.438 93.9901L290.195 93.6401C289.147 96.0285 285.372 101.12 278.661 102.378C270.272 103.951 263.457 108.844 262.583 109.893C261.709 110.941 252.447 121.777 251.224 123C250 124.223 244.932 136.282 247.379 134.359C249.825 132.437 255.942 119.68 259.962 115.835C263.981 111.99 273.418 107.271 277.438 105.524C281.457 103.777 295.438 104.301 301.205 100.805C305.819 98.0092 304.758 99.6402 303.652 100.805C301.456 103.019 295.796 107.411 290.719 107.271C284.374 107.097 266.777 115.835 263.457 118.806C260.136 121.776 255.593 127.544 258.913 128.068C262.233 128.592 266.428 123 269.049 123C271.671 123 273.768 111.99 283.03 111.815C292.292 111.64 314.662 98.0092 320.603 96.4363C326.545 94.8635 339.478 90.3201 343.322 89.7958C346.398 89.3764 345.536 91.0192 344.72 91.893C340.177 92.0677 321.827 101.155 318.157 105.524C314.487 109.893 294.04 118.806 285.477 119.68C276.913 120.554 281.807 128.593 269.049 132.088C256.292 135.583 246.505 149.389 244.932 149.389C243.359 149.389 237.592 170.535 238.99 185.739C240.388 200.943 254.02 232.226 255.767 235.196C257.515 238.167 265.379 251.1 262.059 249.876C258.738 248.653 238.99 207.584 237.592 199.545C236.194 191.506 233.048 173.856 234.621 165.467C236.194 157.079 242.485 152.884 238.99 146.942C235.495 141.001 249.301 122.301 252.447 115.835Z" fill="#303032"/>
<path d="M201.067 151.833C200.507 143.305 206.076 132.784 208.931 128.59C209.909 128.59 209.339 137.561 208.931 142.046C204.387 145.367 210.853 164.765 213.474 172.28C215.572 178.292 218.659 191.329 219.941 197.096C219.125 195.64 217.074 192.342 215.397 190.805C213.3 188.882 212.076 182.067 210.853 180.319C209.63 178.571 207.707 173.503 206.834 170.358C205.96 167.212 201.766 162.493 201.067 151.833Z" fill="#303032"/>
<path d="M210.504 295.313C211.902 292.516 224.951 293.449 231.301 294.264L231.825 294.963L231.301 298.807H230.252C229.495 298.807 227.456 298.563 225.359 297.584C223.262 296.605 215.281 301.604 211.553 304.225C210.621 303.701 209.63 302.477 213.126 301.778C216.621 301.079 219.126 297.177 219.941 295.313L211.553 298.807C210.621 298.808 209.106 298.109 210.504 295.313Z" fill="#303032"/>
<path d="M226.58 286.747C225.042 283.532 206.133 283.66 196.871 284.126L200.366 293.738L206.133 289.194C208.697 288.379 214.662 286.957 218.017 287.796C222.211 288.845 228.503 290.767 226.58 286.747Z" fill="#303032"/>
<path d="M221.164 268.399C221.164 266.582 202.406 269.855 193.027 271.72L194.251 275.914L202.639 274.516C204.911 275.448 210.259 277.382 213.474 277.662C216.69 277.942 219.94 275.681 221.164 274.516C217.086 274.575 209.245 274.307 210.503 272.769C211.762 271.231 222.795 271.428 228.154 271.72C225.824 271.37 221.164 270.217 221.164 268.399Z" fill="#303032"/>
<path d="M220.637 241.838C214.206 237.084 194.772 246.615 185.859 251.974L191.277 265.955C193.607 264.032 198.966 259.384 201.763 256.168C205.258 252.149 209.976 248.129 214.52 246.731C219.064 245.333 224.656 250.401 226.579 250.401H229.899C229.491 249.527 227.068 246.591 220.637 241.838Z" fill="#303032"/>
<path d="M189.71 219.815C184.677 217.298 179.923 229.135 178.176 235.368L182.195 244.106C185.399 239.271 192.157 229.146 193.555 227.329C195.302 225.057 212.079 227.329 215.225 227.329C217.742 227.329 226.759 235.484 230.953 239.562C229.148 236.708 225.012 229.845 222.914 225.232C220.293 219.465 196.001 222.96 189.71 219.815Z" fill="#303032"/>
<path d="M227.805 103.078C228.224 99.7222 242.776 92.4754 250 89.2715L253.844 90.32L247.728 95.3881C245.223 99.0581 239.094 107.027 234.621 109.544C230.147 112.06 225.999 125.272 224.484 131.563C225.824 131.563 228.644 130.27 229.203 125.097C229.902 118.631 250 99.0581 253.844 94.6891C256.92 91.1938 261.184 92.1842 262.932 93.1162L259.437 97.4852C256.699 101.388 250.279 109.264 246.504 109.544C241.786 109.893 238.116 124.049 232.349 127.194C226.582 130.34 225.883 154.632 225.184 157.603C224.484 160.574 228.329 185.04 228.329 186.438C228.329 187.836 250.699 240.789 251.922 242.886C253.145 244.983 255.417 250.75 253.495 250.75C251.572 250.75 226.756 190.982 223.436 187.662C220.115 184.341 218.018 162.846 216.446 157.603C214.873 152.36 217.494 132.437 218.018 124.049C218.543 115.66 227.281 107.272 227.805 103.078Z" fill="#303032"/>
<path d="M321.825 109.018C334.128 96.1554 384.273 95.503 407.807 96.7845H411.128L416.545 102.901L376.001 105.347C367.729 106.571 347.725 109.647 333.884 112.163C320.043 114.679 312.272 126.377 310.116 131.911C297.184 140.707 269.712 158.824 263.28 160.921C255.244 163.542 254.368 176.465 252.971 197.073L252.97 197.097C251.851 213.594 273.242 239.272 284.077 250.049C287.805 252.787 292.78 257.109 282.854 252.496C270.446 246.729 260.135 230.476 252.97 222.612C245.804 214.747 248.775 202.165 244.756 194.65C240.736 187.135 247.377 160.921 248.775 153.406C249.894 147.395 253.785 148.571 255.591 149.911C259.61 137.678 306.446 125.096 321.825 109.018Z" fill="#303032"/>
<path d="M175.202 145.359C175.202 142.423 182.076 131.203 185.513 125.96C186.564 125.125 187.99 123.977 189.01 123.124C189.257 122.72 189.49 122.435 189.707 122.29C190.834 121.539 190.195 122.133 189.01 123.124C186.873 126.622 183.778 138.987 182.368 145.359C181.843 148.796 180.83 156.648 180.969 160.563C181.109 164.477 174.853 177.34 171.707 183.282C169.26 187.534 164.367 195.41 164.367 192.893V183.282L173.105 158.466C173.804 155.32 175.202 148.295 175.202 145.359Z" fill="#303032"/>
<path d="M144.422 87.3464C146.379 86.7872 149.432 68.4723 150.713 59.3848L159.626 64.6276C159.102 72.7831 157.214 90.4921 153.859 96.0844C150.504 101.677 147.917 111.347 147.043 115.483C145.238 119.794 140.647 128.52 136.732 128.939C132.818 129.359 132.655 126.668 133.063 125.269L136.732 104.997C138.48 99.3466 142.465 87.9057 144.422 87.3464Z" fill="#303032"/>
<path d="M138.678 142.923C136.301 142.923 132.387 155.797 132.911 162.846V164.244L140.6 172.632C140.659 170.943 141.369 164.908 143.746 154.282C146.123 143.657 151.144 140.535 153.358 140.301C151.377 146.651 147.032 159.176 145.494 158.477C143.956 157.778 144.503 170.419 144.97 176.826L148.814 180.147C147.882 178.924 146.577 175.568 148.814 171.933C151.051 168.298 150.795 162.03 150.387 159.35C151.843 153.467 155.77 141.106 159.824 138.729C164.892 135.757 169.611 102.553 169.436 99.2328C169.296 96.5765 174.621 82.2813 177.3 75.4658C172.698 73.0774 164.403 68.8599 168.038 71.0968C171.673 73.3337 167.98 83.2714 163.145 88.5724C162.853 90.4948 160.244 98.6037 159.125 99.5823C157.727 100.806 153.008 121.952 153.358 125.272C153.708 128.593 141.649 142.923 138.678 142.923Z" fill="#303032"/>
<path d="M172.755 104.649C172.056 99.7557 180.27 86.7652 184.464 80.8816V80.0078L194.6 84.5516C194.6 84.9594 194.356 85.9497 193.377 86.6487C192.398 87.3477 193.785 88.3381 194.6 88.7458C190.231 97.6004 181.179 114.785 179.921 112.688C178.348 110.067 173.804 135.756 172.406 136.281C171.008 136.805 164.017 169.136 162.445 166.689C161.186 164.732 158.891 176.009 157.901 181.893C157.143 186.495 155.419 195.105 154.58 192.728C153.741 190.352 152.25 186.961 151.609 185.563L153.532 174.903C154.988 172.573 157.446 166.689 155.629 161.796C153.811 156.902 163.61 138.436 168.736 129.815C170.367 123.465 173.454 109.542 172.755 104.649Z" fill="#303032"/>
<path d="M130.815 81.5787C133.751 80.1806 135.999 62.4715 136.756 53.7918V52.918C139.669 54.4326 145.32 57.3918 144.621 57.1122C143.922 56.8326 143.048 59.6754 142.698 61.1317C143.106 62.7628 143.677 66.025 142.698 66.025C141.72 66.025 141.358 70.1027 141.3 72.1416C139.494 78.899 135.044 93.5672 131.688 98.1809C127.494 103.948 127.319 134.531 127.319 135.754C127.319 136.733 123.824 146.415 122.076 151.133C120.096 148.861 115.785 143.793 114.387 141.696C112.639 139.075 117.533 119.327 118.057 119.327C118.476 119.327 124.407 96.9576 127.319 85.7729C127.261 84.9574 127.879 82.9767 130.815 81.5787Z" fill="#303032"/>
<path d="M120.331 66.0284C125.783 63.6517 125.399 52.4554 124.525 47.1543L130.816 50.1252C130.991 59.038 130.292 76.7587 126.098 76.3393C121.903 75.9199 113.398 113.097 109.67 131.738C109.379 133.602 108.656 137.016 108.097 135.758C107.538 134.5 104.253 131.971 102.68 130.865C102.68 130.049 103.239 128.103 105.476 126.845C108.272 125.272 107.922 119.33 108.796 113.913C109.67 108.495 115.962 92.0677 117.709 84.3783C119.457 76.6888 113.515 68.9993 120.331 66.0284Z" fill="#303032"/>
<path d="M223.61 367.665C222.758 386.22 223.832 399.819 217.756 399.54C215.953 399.457 195.319 403.335 195.649 396.151C195.734 394.294 197.731 387.889 198.27 385.84C199.815 379.965 201.034 378.352 201.849 376.169C202.326 365.789 198.905 342.563 200.192 334.286C201.206 327.768 208.017 336.346 210.694 336.469C213.37 336.592 217.931 331.086 220.732 337.779C224.289 346.278 221.901 354.883 223.61 367.665Z" fill="#303032"/>
<path d="M222.738 315.759C222.738 322.129 220.866 334.458 212.951 334.458C205.037 334.458 198.621 329.294 198.621 322.924C198.621 316.554 199.619 307.895 207.534 307.895C215.448 307.895 222.738 309.389 222.738 315.759Z" fill="white"/>
<path d="M69.2972 28.9794C69.2972 39.6928 70.6936 44.8826 60.5592 44.8826C50.4249 44.8826 41.8599 34.0474 33.2966 20.4161C33.2966 9.70267 24.7351 5.38672 34.8694 5.38672C45.0038 5.38672 55.8408 20.4161 69.2972 28.9794Z" fill="white"/>
<path d="M232.875 315.759C232.875 322.129 231.003 334.458 223.088 334.458C215.174 334.458 208.758 329.294 208.758 322.924C208.758 316.554 209.756 307.895 217.671 307.895C225.585 307.895 232.875 309.389 232.875 315.759Z" fill="#303032"/>
<path d="M399.245 298.631C399.245 306.063 396.462 328.34 388.934 328.34C381.405 328.34 366.215 328.262 366.215 320.831C366.215 313.399 376.337 305.451 383.866 305.451C391.394 305.451 399.245 291.199 399.245 298.631Z" fill="#303032"/>
<path d="M433.497 305.621C433.497 314.211 428.802 321.175 423.011 321.175C417.22 321.175 405.535 317.881 405.535 309.291C405.535 300.701 419.842 286.922 425.633 286.922C431.424 286.922 433.497 297.031 433.497 305.621Z" fill="white"/>
<path d="M239.508 365.39C238.721 382.532 249.099 398.94 242.175 398.622C240.12 398.528 217.319 404.132 217.624 397.495C217.929 390.858 222.353 385.135 222.907 373.08C223.347 363.489 216.239 347.688 217.624 340.049C218.714 334.035 226.024 335.082 229.074 335.222C232.125 335.362 232.581 324.748 235.838 330.963C239.974 338.854 237.434 353.557 239.508 365.39Z" fill="white"/>
<path d="M382.818 381.818C382.818 393.743 383.017 399.269 378.449 401.825C374.809 403.861 360.541 401.825 358.701 401.825C354.55 401.825 364.643 378.322 364.643 373.254C368.138 366.264 366.435 328.516 370.585 328.516C371.446 328.516 375.607 330.235 381.07 330.613C386.421 330.984 393.063 330.008 395.051 330.613C396.049 334.519 388.415 349.816 388.935 355.778C389.358 360.631 382.818 376.151 382.818 381.818Z" fill="white"/>
<path d="M423.359 369.934C423.359 383.694 427.823 386.536 428.951 395.275C426.955 399.038 425.894 401.567 423.359 401.567C420.824 401.567 410.325 403.408 408.329 399.644C407.024 397.181 411.381 392.064 411.825 384.09C412.613 369.914 412.698 350.255 412.698 341.449C412.698 328.794 405.18 327.697 408.329 320.652C410.488 315.823 420.454 324.323 423.359 324.323C426.264 324.323 429.938 317.046 432.097 321.875C433.864 325.828 428.951 334.109 426.33 340.225C426.822 347.189 423.359 364.381 423.359 369.934Z" fill="#303032"/>
<path d="M450.1 160.748C454.294 174.554 457.789 190.492 452.022 192.554C445.479 194.893 443.634 189.234 440.663 163.719C431.597 138.362 406.857 106.64 413.4 104.301C419.943 101.961 447.938 153.63 450.1 160.748Z" fill="white"/>
<path d="M108.444 72.6722C99.5317 91.0162 105.124 110.939 84.3266 129.294C75.6101 136.987 61.8602 155.751 55.4911 160.401C45.5933 167.628 33.1863 160.504 28.0537 157.605C19.8136 152.951 22.4255 148.037 28.0537 122.828C29.4108 116.749 35.2027 106.801 37.6657 96.4389C39.8855 87.1003 38.6794 73.275 41.6851 67.9533C61.8579 32.2365 66.5017 24.6088 77.5118 28.2794C91.3179 30.7248 111.241 35.6165 108.444 72.6722Z" fill="#303032"/>
<path d="M113.717 29.5011C107.917 44.0068 94.5022 44.1996 89.8842 40.7051C85.2663 37.2107 83.3032 34.0052 89.8844 25.3081C96.4655 16.611 113.61 3.46187 118.228 6.95629C122.846 10.4507 120.298 20.804 113.717 29.5011Z" fill="#303032"/>
<path d="M473.286 222.912C481.478 236.498 491.515 244.384 495.48 255.658C501.117 271.682 489.536 255.929 484.297 259.088C479.401 262.04 494.904 303.05 484.297 292.16C475.568 283.199 468.316 263.95 459.361 249.1C455.359 242.463 449.393 242.459 446.342 236.17C438.27 219.533 438.129 183.509 440.837 171.757C442.179 165.93 450.184 183.841 452.545 182.417C461.47 177.036 453.449 190.016 473.286 222.912Z" fill="#303032"/>
<path d="M201.94 112.862C203.617 104.893 216.154 94.629 224.134 87.8716C224.134 87.8716 224.659 86.8218 227.455 86.2981C230.251 85.7745 236.892 86.6477 236.892 86.6477C236.426 87.7545 235.179 89.8633 233.921 89.4438C232.663 89.0244 224.542 97.1915 220.639 101.328C219.521 100.349 211.552 112.687 207.707 118.978C206.483 121.949 203.792 127.821 202.813 127.542C201.59 127.192 195.474 139.076 195.474 139.95C195.474 140.823 193.376 160.222 193.376 164.241C193.376 168.261 204.212 188.882 205.61 188.358C206.728 187.939 219.241 205.077 225.358 213.698C225.474 216.495 225.497 221.353 224.659 218.417C223.61 214.747 212.076 204.087 211.901 203.562C211.726 203.038 198.27 190.455 197.396 188.882C196.522 187.31 191.804 174.902 190.93 174.203C190.231 173.643 189.823 179.329 189.706 182.242C189.299 185.329 187.819 191.888 185.163 193.426C181.842 195.349 183.939 203.388 185.163 201.29C186.141 199.613 191.046 195.349 193.376 193.426C195.124 195.582 199.283 200.172 201.94 201.29C204.596 202.409 208.988 208.747 210.852 211.776C206.017 210.553 196.173 207.547 195.474 205.31C194.6 202.514 184.114 207.757 182.541 206.533C181.283 205.555 174.561 216.495 171.357 222.087L168.211 219.291C171.007 215.446 177.194 206.184 179.57 199.892C182.541 192.028 184.988 169.834 185.163 164.241C185.337 158.649 188.833 151.484 190.93 136.105C193.027 120.726 199.843 122.823 201.94 112.862Z" fill="#303032"/>
<path d="M319.383 206.36C317.565 203.984 313.732 201.292 312.043 200.244C315.958 198.705 318.567 199.603 319.383 200.244C320.956 198.962 325.115 195.91 329.169 193.952C334.238 191.505 344.199 191.506 349.966 188.535C355.733 185.565 370.063 184.34 380.2 182.418C388.308 180.88 420.394 180.729 435.424 180.845C436.123 186.379 435.913 196.259 429.482 191.506C421.443 185.564 387.19 195.525 382.646 193.952C378.102 192.379 371.811 196.749 355.558 198.496C339.306 200.244 328.645 210.904 326.199 209.506C324.241 208.388 323.985 213.351 324.101 215.972C323.286 213.759 321.2 208.737 319.383 206.36Z" fill="#303032"/>
</svg>
